<svg id="Layer_1" data-name="Layer 1" xmlns="http://www.w3.org/2000/svg" viewBox="0 0 1187.04 700"><defs><style>.cls-1{fill:#7a00aa;}.cls-2{fill:#7a01aa;}.cls-3{fill:#7902aa;}.cls-4{fill:#7903ab;}.cls-5{fill:#7904ab;}.cls-6{fill:#7805ab;}.cls-7{fill:#7806ab;}.cls-8{fill:#7807ac;}.cls-9{fill:#7708ac;}.cls-10{fill:#7709ac;}.cls-11{fill:#770aac;}.cls-12{fill:#760bad;}.cls-13{fill:#760cad;}.cls-14{fill:#760dad;}.cls-15{fill:#750ead;}.cls-16{fill:#750fae;}.cls-17{fill:#7510ae;}.cls-18{fill:#7411ae;}.cls-19{fill:#7412ae;}.cls-20{fill:#7413af;}.cls-21{fill:#7314af;}.cls-22{fill:#7315af;}.cls-23{fill:#7316af;}.cls-24{fill:#7217b0;}.cls-25{fill:#7218b0;}.cls-26{fill:#7219b0;}.cls-27{fill:#721ab0;}.cls-28{fill:#711bb1;}.cls-29{fill:#711cb1;}.cls-30{fill:#711db1;}.cls-31{fill:#701eb1;}.cls-32{fill:#701fb2;}.cls-33{fill:#7020b2;}.cls-34{fill:#6f21b2;}.cls-35{fill:#6f22b2;}.cls-36{fill:#6f23b3;}.cls-37{fill:#6e24b3;}.cls-38{fill:#6e25b3;}.cls-39{fill:#6e26b3;}.cls-40{fill:#6d27b4;}.cls-41{fill:#6d28b4;}.cls-42{fill:#6d29b4;}.cls-43{fill:#6c2ab4;}.cls-44{fill:#6c2bb5;}.cls-45{fill:#6c2cb5;}.cls-46{fill:#6b2db5;}.cls-47{fill:#6b2eb5;}.cls-48{fill:#6b2fb6;}.cls-49{fill:#6a30b6;}.cls-50{fill:#6a31b6;}.cls-51{fill:#6a32b6;}.cls-52{fill:#6933b7;}.cls-53{fill:#6934b7;}.cls-54{fill:#6935b7;}.cls-55{fill:#6836b7;}.cls-56{fill:#6837b8;}.cls-57{fill:#6838b8;}.cls-58{fill:#6739b8;}.cls-59{fill:#673ab8;}.cls-60{fill:#673bb9;}.cls-61{fill:#663cb9;}.cls-62{fill:#663db9;}.cls-63{fill:#663eb9;}.cls-64{fill:#653fba;}.cls-65{fill:#6540ba;}.cls-66{fill:#6541ba;}.cls-67{fill:#6442ba;}.cls-68{fill:#6443bb;}.cls-69{fill:#6444bb;}.cls-70{fill:#6345bb;}.cls-71{fill:#6346bb;}.cls-72{fill:#6347bc;}.cls-73{fill:#6248bc;}.cls-74{fill:#6249bc;}.cls-75{fill:#624abc;}.cls-76{fill:#624bbd;}.cls-77{fill:#614cbd;}.cls-78{fill:#614dbd;}.cls-79{fill:#614ebd;}.cls-80{fill:#604fbe;}.cls-81{fill:#6050be;}.cls-82{fill:#6051be;}.cls-83{fill:#5f52be;}.cls-84{fill:#5f53bf;}.cls-85{fill:#5f54bf;}.cls-86{fill:#5e55bf;}.cls-87{fill:#5e56bf;}.cls-88{fill:#5e57c0;}.cls-89{fill:#5d58c0;}.cls-90{fill:#5d59c0;}.cls-91{fill:#5d5ac0;}.cls-92{fill:#5c5bc1;}.cls-93{fill:#5c5cc1;}.cls-94{fill:#5c5dc1;}.cls-95{fill:#5b5ec1;}.cls-96{fill:#5b5fc2;}.cls-97{fill:#5b60c2;}.cls-98{fill:#5a61c2;}.cls-99{fill:#5a62c2;}.cls-100{fill:#5a63c3;}.cls-101{fill:#5964c3;}.cls-102{fill:#5965c3;}.cls-103{fill:#5966c3;}.cls-104{fill:#5867c4;}.cls-105{fill:#5868c4;}.cls-106{fill:#5869c4;}.cls-107{fill:#576ac4;}.cls-108{fill:#576bc5;}.cls-109{fill:#576cc5;}.cls-110{fill:#566dc5;}.cls-111{fill:#566ec5;}.cls-112{fill:#566fc6;}.cls-113{fill:#5570c6;}.cls-114{fill:#5571c6;}.cls-115{fill:#5572c6;}.cls-116{fill:#5473c7;}.cls-117{fill:#5474c7;}.cls-118{fill:#5475c7;}.cls-119{fill:#5376c7;}.cls-120{fill:#5377c8;}.cls-121{fill:#5378c8;}.cls-122{fill:#5379c8;}.cls-123{fill:#527ac8;}.cls-124{fill:#527bc8;}.cls-125{fill:#527cc9;}.cls-126{fill:#517dc9;}.cls-127{fill:#517ec9;}.cls-128{fill:#517fc9;}.cls-129{fill:#5080ca;}.cls-130{fill:#5081ca;}.cls-131{fill:#5082ca;}.cls-132{fill:#4f83ca;}.cls-133{fill:#4f84cb;}.cls-134{fill:#4f85cb;}.cls-135{fill:#4e86cb;}.cls-136{fill:#4e87cb;}.cls-137{fill:#4e88cc;}.cls-138{fill:#4d89cc;}.cls-139{fill:#4d8acc;}.cls-140{fill:#4d8bcc;}.cls-141{fill:#4c8ccd;}.cls-142{fill:#4c8dcd;}.cls-143{fill:#4c8ecd;}.cls-144{fill:#4b8fcd;}.cls-145{fill:#4b90ce;}.cls-146{fill:#4b91ce;}.cls-147{fill:#4a92ce;}.cls-148{fill:#4a93ce;}.cls-149{fill:#4a94cf;}.cls-150{fill:#4995cf;}.cls-151{fill:#4996cf;}.cls-152{fill:#4997cf;}.cls-153{fill:#4898d0;}.cls-154{fill:#4899d0;}.cls-155{fill:#489ad0;}.cls-156{fill:#479bd0;}.cls-157{fill:#479cd1;}.cls-158{fill:#479dd1;}.cls-159{fill:#469ed1;}.cls-160{fill:#469fd1;}.cls-161{fill:#46a0d2;}.cls-162{fill:#45a1d2;}.cls-163{fill:#45a2d2;}.cls-164{fill:#45a3d2;}.cls-165{fill:#44a4d3;}.cls-166{fill:#44a5d3;}.cls-167{fill:#44a6d3;}.cls-168{fill:#43a7d3;}.cls-169{fill:#43a8d4;}.cls-170{fill:#43a9d4;}.cls-171{fill:#43aad4;}.cls-172{fill:#42abd4;}.cls-173{fill:#42acd5;}.cls-174{fill:#42add5;}.cls-175{fill:#41aed5;}.cls-176{fill:#41afd5;}.cls-177{fill:#41b0d6;}.cls-178{fill:#40b1d6;}.cls-179{fill:#40b2d6;}.cls-180{fill:#40b3d6;}.cls-181{fill:#3fb4d7;}.cls-182{fill:#3fb5d7;}.cls-183{fill:#3fb6d7;}.cls-184{fill:#3eb7d7;}.cls-185{fill:#3eb8d8;}.cls-186{fill:#3eb9d8;}.cls-187{fill:#3dbad8;}.cls-188{fill:#3dbbd8;}.cls-189{fill:#3dbcd9;}.cls-190{fill:#3cbdd9;}.cls-191{fill:#3cbed9;}.cls-192{fill:#3cbfd9;}.cls-193{fill:#3bc0da;}.cls-194{fill:#3bc1da;}.cls-195{fill:#3bc2da;}.cls-196{fill:#3ac3da;}.cls-197{fill:#3ac4db;}.cls-198{fill:#3ac5db;}.cls-199{fill:#39c6db;}.cls-200{fill:#39c7db;}.cls-201{fill:#39c8dc;}.cls-202{fill:#38c9dc;}.cls-203{fill:#38cadc;}.cls-204{fill:#38cbdc;}.cls-205{fill:#37ccdd;}.cls-206{fill:#37cddd;}.cls-207{fill:#37cedd;}.cls-208{fill:#36cfdd;}.cls-209{fill:#36d0de;}.cls-210{fill:#36d1de;}.cls-211{fill:#35d2de;}.cls-212{fill:#35d3de;}.cls-213{fill:#35d4df;}.cls-214{fill:#34d5df;}.cls-215{fill:#34d6df;}.cls-216{fill:#34d7df;}.cls-217{fill:#33d8e0;}.cls-218{fill:#33d9e0;}.cls-219{fill:#33dae0;}.cls-220{fill:#33dbe0;}.cls-221{fill:#32dce1;}.cls-222{fill:#32dde1;}.cls-223{fill:#32dee1;}.cls-224{fill:#31dfe1;}.cls-225{fill:#31e0e2;}.cls-226{fill:#31e1e2;}.cls-227{fill:#30e2e2;}.cls-228{fill:#30e3e2;}.cls-229{fill:#30e4e3;}.cls-230{fill:#2fe5e3;}.cls-231{fill:#2fe6e3;}.cls-232{fill:#2fe7e3;}.cls-233{fill:#2ee8e4;}.cls-234{fill:#2ee9e4;}.cls-235{fill:#2eeae4;}.cls-236{fill:#2debe4;}.cls-237{fill:#2dece5;}.cls-238{fill:#2dede5;}.cls-239{fill:#2ceee5;}.cls-240{fill:#2cefe5;}.cls-241{fill:#2cf0e6;}.cls-242{fill:#2bf1e6;}.cls-243{fill:#2bf2e6;}.cls-244{fill:#7a21aa;}.cls-245{fill:#7a22aa;}.cls-246{fill:#7a23aa;}.cls-247{fill:#7a24aa;}.cls-248{fill:#7a25aa;}.cls-249{fill:#7a26aa;}.cls-250{fill:#7a27aa;}.cls-251{fill:#7a28aa;}.cls-252{fill:#7a29aa;}.cls-253{fill:#7a2aaa;}.cls-254{fill:#7a2baa;}.cls-255{fill:#7a2caa;}.cls-256{fill:#7a2daa;}.cls-257{fill:#7a2eaa;}.cls-258{fill:#7a2faa;}.cls-259{fill:#7a30aa;}.cls-260{fill:#7a31aa;}.cls-261{fill:#7a32aa;}.cls-262{fill:#7a33aa;}.cls-263{fill:#7a34aa;}.cls-264{fill:#7a35aa;}.cls-265{fill:#7a36aa;}.cls-266{fill:#7a37aa;}.cls-267{fill:#7a38aa;}.cls-268{fill:#7a39aa;}.cls-269{fill:#7a3aaa;}.cls-270{fill:#7a3baa;}.cls-271{fill:#7a3caa;}.cls-272{fill:#7a3daa;}.cls-273{fill:#7a3eaa;}.cls-274{fill:#7a3faa;}.cls-275{fill:#7a40aa;}.cls-276{fill:#7a41aa;}.cls-277{fill:#7a42aa;}.cls-278{fill:#7a43aa;}.cls-279{fill:#7a44aa;}.cls-280{fill:#7a45aa;}.cls-281{fill:#7a46aa;}.cls-282{fill:#7a47aa;}.cls-283{fill:#7a48aa;}.cls-284{fill:#7a49aa;}.cls-285{fill:#7a4aaa;}.cls-286{fill:#7a4baa;}.cls-287{fill:#7a4caa;}.cls-288{fill:#7a4daa;}.cls-289{fill:#7a4eaa;}.cls-290{fill:#7a4faa;}.cls-291{fill:#7a50aa;}.cls-292{fill:#7a51aa;}.cls-293{fill:#7a52aa;}.cls-294{fill:#7a53aa;}.cls-295{fill:#7a54aa;}.cls-296{fill:#7a55aa;}.cls-297{fill:#7a56aa;}.cls-298{fill:#7a57aa;}.cls-299{fill:#7a58aa;}.cls-300{fill:#7a59aa;}.cls-301{fill:#7a5aaa;}.cls-302{fill:#7a5baa;}.cls-303{fill:#7a5caa;}.cls-304{fill:#7a5daa;}.cls-305{fill:#7a5eaa;}.cls-306{fill:#7a5faa;}.cls-307{fill:#7a60aa;}.cls-308{fill:#7a61aa;}.cls-309{fill:#7a62aa;}.cls-310{fill:#7a63aa;}.cls-311{fill:#7a64aa;}.cls-312{fill:#7a65aa;}.cls-313{fill:#7a66aa;}.cls-314{fill:#7a67aa;}.cls-315{fill:#7a68aa;}.cls-316{fill:#7a69aa;}.cls-317{fill:#7a6aaa;}.cls-318{fill:#7a6baa;}.cls-319{fill:#7a6caa;}.cls-320{fill:#7a6daa;}.cls-321{fill:#7a6eaa;}.cls-322{fill:#7a6faa;}.cls-323{fill:#7a70aa;}.cls-324{fill:#7a71aa;}.cls-325{fill:#7a72aa;}.cls-326{fill:#7a73aa;}.cls-327{fill:#7a74aa;}.cls-328{fill:#7a75aa;}.cls-329{fill:#7a76aa;}.cls-330{fill:#7a77aa;}.cls-331{fill:#7a78aa;}.cls-332{fill:#7a79aa;}.cls-333{fill:#7a7aaa;}.cls-334{fill:#7a7baa;}.cls-335{fill:#7a7caa;}.cls-336{fill:#7a7daa;}.cls-337{fill:#7a7eaa;}.cls-338{fill:#7a7faa;}.cls-339{fill:#7a80aa;}.cls-340{fill:#7a81aa;}.cls-341{fill:#7a82aa;}.cls-342{fill:#7a83aa;}.cls-343{fill:#7a84aa;}.cls-344{fill:#7a85aa;}.cls-345{fill:#7a86aa;}.cls-346{fill:#7a87aa;}.cls-347{fill:#7a88aa;}.cls-348{fill:#7a89aa;}.cls-349{fill:#7a8aaa;}.cls-350{fill:#7a8baa;}.cls-351{fill:#7a8caa;}.cls-352{fill:#7a8daa;}.cls-353{fill:#7a8eaa;}.cls-354{fill:#7a8faa;}.cls-355{fill:#7a90aa;}.cls-356{fill:#7a91aa;}.cls-357{fill:#7a92aa;}.cls-358{fill:#7a93aa;}.cls-359{fill:#7a94aa;}.cls-360{fill:#7a95aa;}.cls-361{fill:#7a96aa;}.cls-362{fill:#7a97aa;}.cls-363{fill:#7a98aa;}.cls-364{fill:#7a99aa;}.cls-365{fill:#7a9aaa;}.cls-366{fill:#7a9baa;}.cls-367{fill:#7a9caa;}.cls-368{fill:#7a9daa;}.cls-369{fill:#7a9eaa;}.cls-370{fill:#7a9faa;}.cls-371{fill:#7aa0aa;}.cls-372{fill:#7aa1aa;}.cls-373{fill:#7aa2aa;}.cls-374{fill:#7aa3aa;}.cls-375{fill:#7aa4aa;}.cls-376{fill:#7aa5aa;}.cls-377{fill:#7aa6aa;}.cls-378{fill:#7aa7aa;}.cls-379{fill:#7aa8aa;}.cls-380{fill:#7aa9aa;}.cls-381{fill:#7aaaaa;}.cls-382{fill:#7aabaa;}.cls-383{fill:#7aacaa;}.cls-384{fill:#7aadaa;}.cls-385{fill:#7aaeaa;}.cls-386{fill:#7aafaa;}.cls-387{fill:#7ab0aa;}.cls-388{fill:#7ab1aa;}.cls-389{fill:#7ab2aa;}.cls-390{fill:#7ab3aa;}.cls-391{fill:#7ab4aa;}.cls-392{fill:#7ab5aa;}.cls-393{fill:#7ab6aa;}.cls-394{fill:#7ab7aa;}.cls-395{fill:#7ab8aa;}.cls-396{fill:#7ab9aa;}.cls-397{fill:#7abaaa;}.cls-398{fill:#7abbaa;}.cls-399{fill:#7abcaa;}.cls-400{fill:#7abdaa;}.cls-401{fill:#7abeaa;}.cls-402{fill:#7abfaa;}.cls-403{fill:#7ac0aa;}.cls-404{fill:#7ac1aa;}.cls-405{fill:#7ac2aa;}.cls-406{fill:#7ac3aa;}.cls-407{fill:#7ac4aa;}.cls-408{fill:#7ac5aa;}.cls-409{fill:#7ac6aa;}.cls-410{fill:#7ac7aa;}.cls-411{fill:#7ac8aa;}.cls-412{fill:#7ac9aa;}.cls-413{fill:#7acaaa;}.cls-414{fill:#7acbaa;}.cls-415{fill:#7accaa;}.cls-416{fill:#7acdaa;}.cls-417{fill:#7aceaa;}.cls-418{fill:#7acfaa;}.cls-419{fill:#7ad0aa;}.cls-420{fill:#7ad1aa;}.cls-421{fill:#7ad2aa;}.cls-422{fill:#7ad3aa;}.cls-423{fill:#7ad4aa;}.cls-424{fill:#7ad5aa;}.cls-425{fill:#7ad6aa;}.cls-426{fill:#7ad7aa;}.cls-427{fill:#7ad8aa;}.cls-428{fill:#7ad9aa;}.cls-429{fill:#7adaaa;}.cls-430{fill:#7adbaa;}.cls-431{fill:#7adcaa;}.cls-432{fill:#7addaa;}.cls-433{fill:#7adeaa;}.cls-434{fill:#7adfaa;}.cls-435{fill:#7ae0aa;}.cls-436{fill:#7ae1aa;}.cls-437{fill:#7ae2aa;}.cls-438{fill:#7ae3aa;}.cls-439{fill:#7ae4aa;}.cls-440{fill:#7ae5aa;}.cls-441{fill:#7ae6aa;}.cls-442{fill:#7ae7aa;}.cls-443{fill:#7ae8aa;}.cls-444{fill:#7ae9aa;}.cls-445{fill:#7aeaaa;}.cls-446{fill:#7aebaa;}.cls-447{fill:#7aecaa;}.cls-448{fill:#7aedaa;}.cls-449{fill:#7aeeaa;}.cls-450{fill:#7aefaa;}.cls-451{fill:#7af0aa;}.cls-452{fill:#7af1aa;}.cls-453{fill:#7af2aa;}.cls-454{fill:#7af3aa;}.cls-455{fill:#7af4aa;}.cls-456{fill:#7af5aa;}.cls-457{fill:#7af6aa;}.cls-458{fill:#7af7aa;}.cls-459{fill:#7af8aa;}</style></defs><path class="cls-1" d="M40.82,554.54S182,321.4,312.51,242,669,504.35,669,504.35s190.8,218.84,326.37,164.28c-517.17,35.54-918.86,8.73-918.86,8.73Z"/><path class="cls-2" d="M40.72,555S182,321.7,312.35,242.42s356.12,262,356.12,262,190.6,218.61,326,164.1c-516.62,35.5-918.22,8.91-918.22,8.91Z"/><path class="cls-3" d="M40.62,555.48S181.93,322,312.2,242.8,667.93,504.55,667.93,504.55,858.32,722.92,993.6,668.47C477.54,703.94,76,677.55,76,677.55Z"/><path class="cls-4" d="M40.51,556S181.91,322.29,312,243.18,667.39,504.65,667.39,504.65,857.58,722.79,992.71,668.4c-515.51,35.43-916.94,9.25-916.94,9.25Z"/><path class="cls-5" d="M40.41,556.43S181.89,322.59,311.88,243.56s355,261.19,355,261.19,190,217.9,325,163.57c-514.95,35.39-916.3,9.42-916.3,9.42Z"/><path class="cls-6" d="M40.31,556.9s141.57-234,271.42-313S666.31,504.85,666.31,504.85s189.78,217.67,324.62,163.4c-514.4,35.35-915.65,9.58-915.65,9.58Z"/><path class="cls-7" d="M40.21,557.38s141.65-234.2,271.36-313.06S665.77,505,665.77,505,855.35,722.38,990,668.17c-513.84,35.31-915,9.76-915,9.76Z"/><path class="cls-8" d="M40.11,557.85s141.73-234.37,271.3-313.14S665.23,505.05,665.23,505.05s189.37,217.2,323.92,163C475.86,703.37,74.78,678,74.78,678Z"/><path class="cls-9" d="M40,558.32S181.83,323.77,311.26,245.09,664.69,505.15,664.69,505.15,853.86,722.11,988.26,668C475.53,703.25,74.53,678.11,74.53,678.11Z"/><path class="cls-10" d="M39.91,558.79S181.81,324.07,311.1,245.47s353,259.78,353,259.78S853.11,722,987.38,667.94c-512.18,35.2-913.1,10.27-913.1,10.27Z"/><path class="cls-11" d="M39.81,559.27s142-234.91,271.13-313.42,352.68,259.5,352.68,259.5S852.37,721.84,986.49,667.87C474.86,703,74,678.3,74,678.3Z"/><path class="cls-12" d="M39.7,559.74S181.78,324.66,310.79,246.23,663.08,505.45,663.08,505.45,851.63,721.71,985.6,667.79c-511.07,35.12-911.82,10.6-911.82,10.6Z"/><path class="cls-13" d="M39.6,560.21s142.16-235.25,271-313.6S662.54,505.55,662.54,505.55s188.34,216,322.17,162.16C474.19,702.8,73.53,678.49,73.53,678.49Z"/><path class="cls-14" d="M39.5,560.68S181.74,325.25,310.47,247,662,505.65,662,505.65s188.14,215.79,321.82,162c-510,35-910.53,10.94-910.53,10.94Z"/><path class="cls-15" d="M39.4,561.16S181.73,325.55,310.31,247.37,661.46,505.75,661.46,505.75,849.4,721.31,982.93,667.56C473.52,702.57,73,678.67,73,678.67Z"/><path class="cls-16" d="M39.3,561.63S181.71,325.84,310.16,247.76,660.92,505.85,660.92,505.85,848.65,721.17,982,667.48c-508.85,35-909.25,11.29-909.25,11.29Z"/><path class="cls-17" d="M39.2,562.1s142.49-236,270.8-314S660.38,506,660.38,506,847.91,721,981.15,667.41c-508.3,34.93-908.61,11.45-908.61,11.45Z"/><path class="cls-18" d="M39.1,562.57S181.68,326.44,309.84,248.52s350,257.53,350,257.53S847.16,720.9,980.26,667.33C472.52,702.22,72.29,679,72.29,679Z"/><path class="cls-19" d="M39,563.05S181.66,326.73,309.69,248.9,659.3,506.15,659.3,506.15,846.42,720.77,979.37,667.26C472.18,702.11,72,679.05,72,679.05Z"/><path class="cls-20" d="M38.89,563.52S181.64,327,309.53,249.28s349.23,257,349.23,257S845.68,720.63,978.48,667.18c-506.63,34.82-906.69,12-906.69,12Z"/><path class="cls-21" d="M38.79,564S181.63,327.33,309.37,249.66,658.22,506.35,658.22,506.35,844.93,720.5,977.59,667.1c-506.07,34.78-906,12.14-906,12.14Z"/><path class="cls-22" d="M38.69,564.47S181.61,327.62,309.22,250,657.68,506.45,657.68,506.45,844.19,720.36,976.7,667c-505.52,34.74-905.4,12.3-905.4,12.3Z"/><path class="cls-23" d="M38.59,564.94s143-237,270.47-314.51S657.15,506.55,657.15,506.55,843.44,720.23,975.82,667c-505,34.7-904.77,12.47-904.77,12.47Z"/><path class="cls-24" d="M38.49,565.41s143.09-237.2,270.41-314.6S656.61,506.65,656.61,506.65,842.7,720.09,974.93,666.87C470.51,701.54,70.8,679.52,70.8,679.52Z"/><path class="cls-25" d="M38.39,565.88S181.56,328.51,308.75,251.19,656.07,506.75,656.07,506.75,842,720,974,666.8C470.18,701.42,70.55,679.61,70.55,679.61Z"/><path class="cls-26" d="M38.29,566.36s143.25-237.55,270.3-314.79S655.53,506.85,655.53,506.85s185.68,213,317.62,159.87c-503.31,34.59-902.85,13-902.85,13Z"/><path class="cls-27" d="M38.19,566.83S181.52,329.1,308.43,252,655,507,655,507s185.48,212.74,317.27,159.7C469.51,701.2,70.05,679.8,70.05,679.8Z"/><path class="cls-28" d="M38.08,567.3s143.43-237.9,270.2-315S654.45,507.05,654.45,507.05s185.28,212.5,316.92,159.52C469.17,701.08,69.8,679.89,69.8,679.89Z"/><path class="cls-29" d="M38,567.77S181.49,329.7,308.12,252.71,653.91,507.15,653.91,507.15,839,719.42,970.48,666.49C468.84,701,69.55,680,69.55,680Z"/><path class="cls-30" d="M37.88,568.25S181.47,330,308,253.09,653.37,507.25,653.37,507.25s184.87,212,316.22,159.17C468.5,700.85,69.3,680.08,69.3,680.08Z"/><path class="cls-31" d="M37.78,568.72s143.68-238.43,270-315.24,345,253.87,345,253.87,184.66,211.8,315.87,159c-500.53,34.4-899.64,13.83-899.64,13.83Z"/><path class="cls-32" d="M37.68,569.19s143.76-238.61,270-315.33S652.29,507.45,652.29,507.45,836.75,719,967.81,666.26c-500,34.36-899,14-899,14Z"/><path class="cls-33" d="M37.58,569.67S181.42,330.88,307.49,254.24,651.75,507.55,651.75,507.55,836,718.88,966.92,666.19C467.5,700.51,68.56,680.36,68.56,680.36Z"/><path class="cls-34" d="M37.48,570.14s143.93-239,269.85-315.52,343.88,253,343.88,253,184,211.1,314.82,158.46C467.17,700.4,68.31,680.45,68.31,680.45Z"/><path class="cls-35" d="M37.38,570.61s144-239.14,269.8-315.61,343.5,252.75,343.5,252.75S834.52,718.61,965.14,666c-498.31,34.24-897.08,14.5-897.08,14.5Z"/><path class="cls-36" d="M37.27,571.08S181.37,331.77,307,255.38,650.14,507.85,650.14,507.85,833.77,718.48,964.26,666C466.5,700.17,67.81,680.64,67.81,680.64Z"/><path class="cls-37" d="M37.17,571.56s144.19-239.49,269.69-315.8S649.6,508,649.6,508,833,718.34,963.37,665.88C466.16,700.05,67.56,680.73,67.56,680.73Z"/><path class="cls-38" d="M37.07,572S181.34,332.36,306.71,256.14,649.06,508.05,649.06,508.05,832.29,718.21,962.48,665.81c-496.65,34.13-895.17,15-895.17,15Z"/><path class="cls-39" d="M37,572.5s144.35-239.84,269.58-316,342,251.62,342,251.62,183,209.92,313.07,157.58c-496.1,34.09-894.52,15.19-894.52,15.19Z"/><path class="cls-40" d="M36.87,573S181.31,333,306.39,256.91,648,508.25,648,508.25,830.8,717.94,960.7,665.66C465.16,699.71,66.82,681,66.82,681Z"/><path class="cls-41" d="M36.77,573.45s144.52-240.2,269.47-316.16,341.2,251.06,341.2,251.06S830.06,717.8,959.81,665.58c-495,34-893.24,15.53-893.24,15.53Z"/><path class="cls-42" d="M36.67,573.92s144.6-240.37,269.41-316.25S646.9,508.45,646.9,508.45s182.41,209.22,312,157.05c-494.43,34-892.6,15.7-892.6,15.7Z"/><path class="cls-43" d="M36.57,574.39S181.26,333.84,305.92,258.05s340.44,250.5,340.44,250.5S828.57,717.53,958,665.43c-493.88,33.94-892,15.86-892,15.86Z"/><path class="cls-44" d="M36.46,574.87S181.24,334.14,305.77,258.43,645.82,508.65,645.82,508.65s182,208.75,311.32,156.7c-493.32,33.9-891.32,16-891.32,16Z"/><path class="cls-45" d="M36.36,575.34S181.22,334.43,305.61,258.81,645.28,508.75,645.28,508.75s181.8,208.51,311,156.52C463.49,699.14,65.57,681.48,65.57,681.48Z"/><path class="cls-46" d="M36.26,575.81S181.2,334.73,305.45,259.2,644.74,508.85,644.74,508.85,826.34,717.13,955.36,665.2c-492.21,33.82-890,16.37-890,16.37Z"/><path class="cls-47" d="M36.16,576.28S181.19,335,305.3,259.58,644.2,509,644.2,509,825.59,717,954.47,665.12C462.82,698.91,65.08,681.67,65.08,681.67Z"/><path class="cls-48" d="M36.06,576.76S181.17,335.32,305.14,260,643.67,509.05,643.67,509.05s181.18,207.81,309.91,156c-491.1,33.74-888.75,16.71-888.75,16.71Z"/><path class="cls-49" d="M36,577.23S181.15,335.62,305,260.34,643.13,509.15,643.13,509.15,824.1,716.72,952.7,665C462.15,698.68,64.58,681.85,64.58,681.85Z"/><path class="cls-50" d="M35.86,577.7s145.28-241.78,269-317S642.59,509.25,642.59,509.25,823.36,716.59,951.81,664.89C461.81,698.57,64.33,682,64.33,682Z"/><path class="cls-51" d="M35.76,578.17s145.36-242,268.91-317.07S642.05,509.35,642.05,509.35,822.62,716.46,950.92,664.82C461.48,698.45,64.08,682,64.08,682Z"/><path class="cls-52" d="M35.65,578.65S181.1,336.51,304.51,261.48s337,248,337,248S821.87,716.32,950,664.74c-488.89,33.6-886.2,17.39-886.2,17.39Z"/><path class="cls-53" d="M35.55,579.12S181.09,336.8,304.35,261.86,641,509.55,641,509.55,821.13,716.19,949.14,664.66C460.81,698.22,63.58,682.23,63.58,682.23Z"/><path class="cls-54" d="M35.45,579.59S181.07,337.1,304.2,262.25s336.23,247.4,336.23,247.4,180,206.4,307.82,154.94C460.47,698.11,63.33,682.32,63.33,682.32Z"/><path class="cls-55" d="M35.35,580.06S181.05,337.4,304,262.63,639.89,509.75,639.89,509.75,819.64,715.92,947.36,664.51C460.14,698,63.09,682.42,63.09,682.42Z"/><path class="cls-56" d="M35.25,580.54S181,337.69,303.88,263,639.35,509.85,639.35,509.85,818.9,715.78,946.47,664.44C459.81,697.88,62.84,682.51,62.84,682.51Z"/><path class="cls-57" d="M35.15,581S181,338,303.73,263.39,638.81,510,638.81,510s179.34,205.7,306.77,154.41c-486.11,33.41-883,18.24-883,18.24Z"/><path class="cls-58" d="M35.05,581.48S181,338.29,303.57,263.77s334.7,246.28,334.7,246.28S817.41,715.51,944.69,664.28C459.14,697.65,62.34,682.7,62.34,682.7Z"/><path class="cls-59" d="M35,582S181,338.58,303.41,264.15s334.32,246,334.32,246S816.67,715.38,943.8,664.21c-485,33.33-881.71,18.58-881.71,18.58Z"/><path class="cls-60" d="M34.84,582.43S181,338.88,303.26,264.53,637.2,510.25,637.2,510.25s178.72,205,305.71,153.88C458.47,697.42,61.84,682.88,61.84,682.88Z"/><path class="cls-61" d="M34.74,582.9S181,339.17,303.1,264.92,636.66,510.35,636.66,510.35,815.18,715.11,942,664.05C458.13,697.31,61.59,683,61.59,683Z"/><path class="cls-62" d="M34.64,583.37s146.3-243.9,268.3-318.07S636.12,510.45,636.12,510.45,814.44,715,941.14,664c-483.34,33.21-879.8,19.09-879.8,19.09Z"/><path class="cls-63" d="M34.54,583.85S180.92,339.77,302.79,265.68,635.58,510.55,635.58,510.55,813.69,714.84,940.25,663.9C457.46,697.08,61.1,683.16,61.1,683.16Z"/><path class="cls-64" d="M34.44,584.32S180.9,340.06,302.63,266.06,635,510.65,635,510.65,813,714.7,939.36,663.83C457.13,697,60.85,683.26,60.85,683.26Z"/><path class="cls-65" d="M34.34,584.79S180.88,340.36,302.47,266.44s332,244.31,332,244.31,177.7,203.82,304,153c-481.68,33.1-877.87,19.6-877.87,19.6Z"/><path class="cls-66" d="M34.24,585.26S180.87,340.65,302.32,266.82,634,510.85,634,510.85s177.5,203.58,303.62,152.82C456.46,696.74,60.35,683.44,60.35,683.44Z"/><path class="cls-67" d="M34.14,585.74S180.85,341,302.16,267.2,633.42,511,633.42,511,810.72,714.3,936.69,663.6c-480.56,33-876.59,19.94-876.59,19.94Z"/><path class="cls-68" d="M34,586.21s146.8-245,268-318.63S632.88,511.05,632.88,511.05,810,714.16,935.8,663.52c-480,33-875.95,20.11-875.95,20.11Z"/><path class="cls-69" d="M33.93,586.68S180.82,341.54,301.84,268s330.5,243.18,330.5,243.18S809.23,714,934.91,663.45C455.46,696.39,59.6,683.72,59.6,683.72Z"/><path class="cls-70" d="M33.83,587.16s147-245.32,267.86-318.81S631.8,511.25,631.8,511.25,808.48,713.9,934,663.37c-478.9,32.91-874.67,20.45-874.67,20.45Z"/><path class="cls-71" d="M33.73,587.63s147.05-245.49,267.8-318.9S631.26,511.35,631.26,511.35,807.74,713.76,933.13,663.29c-478.34,32.88-874,20.62-874,20.62Z"/><path class="cls-72" d="M33.63,588.1s147.14-245.67,267.74-319S630.72,511.45,630.72,511.45,807,713.63,932.24,663.22C454.45,696.05,58.86,684,58.86,684Z"/><path class="cls-73" d="M33.53,588.57S180.75,342.73,301.22,269.49s329,242.06,329,242.06S806.25,713.49,931.35,663.14c-477.23,32.8-872.74,21-872.74,21Z"/><path class="cls-74" d="M33.43,589.05s147.3-246,267.63-319.18S629.65,511.65,629.65,511.65,805.51,713.36,930.46,663.06c-476.68,32.76-872.1,21.13-872.1,21.13Z"/><path class="cls-75" d="M33.33,589.52S180.72,343.32,300.9,270.25s328.21,241.5,328.21,241.5S804.77,713.22,929.58,663c-476.13,32.72-871.47,21.3-871.47,21.3Z"/><path class="cls-76" d="M33.22,590S180.7,343.62,300.75,270.64,628.57,511.85,628.57,511.85,804,713.09,928.69,662.91C453.11,695.59,57.86,684.38,57.86,684.38Z"/><path class="cls-77" d="M33.12,590.46S180.68,343.91,300.59,271,628,512,628,512,803.28,713,927.8,662.84c-475,32.64-870.19,21.63-870.19,21.63Z"/><path class="cls-78" d="M33,590.94S180.67,344.21,300.43,271.4,627.49,512.05,627.49,512.05s175,200.77,299.42,150.71C452.45,695.37,57.36,684.57,57.36,684.57Z"/><path class="cls-79" d="M32.92,591.41s147.73-246.9,267.36-319.63S627,512.15,627,512.15,801.79,712.68,926,662.68c-473.91,32.57-868.91,22-868.91,22Z"/><path class="cls-80" d="M32.82,591.88S180.63,344.8,300.12,272.16,626.41,512.25,626.41,512.25s174.64,200.3,298.72,150.36C451.78,695.14,56.87,684.75,56.87,684.75Z"/><path class="cls-81" d="M32.72,592.35S180.62,345.1,300,272.54,625.87,512.35,625.87,512.35,800.3,712.41,924.24,662.53C451.44,695,56.62,684.85,56.62,684.85Z"/><path class="cls-82" d="M32.62,592.83s148-247.44,267.19-319.91S625.33,512.45,625.33,512.45s174.23,199.83,298,150c-472.24,32.46-867,22.49-867,22.49Z"/><path class="cls-83" d="M32.52,593.3s148.06-247.61,267.13-320S624.79,512.55,624.79,512.55s174,199.59,297.67,149.83C450.77,694.79,56.12,685,56.12,685Z"/><path class="cls-84" d="M32.41,593.77S180.56,346,299.49,273.69s324.76,239,324.76,239S798.07,712,921.57,662.3c-471.13,32.38-865.7,22.83-865.7,22.83Z"/><path class="cls-85" d="M32.31,594.25s148.24-248,267-320.18S623.72,512.75,623.72,512.75s173.61,199.12,297,149.48c-470.58,32.34-865.06,23-865.06,23Z"/><path class="cls-86" d="M32.21,594.72s148.32-248.14,267-320.27,324,238.4,324,238.4,173.4,198.89,296.61,149.3c-470,32.3-864.42,23.16-864.42,23.16Z"/><path class="cls-87" d="M32.11,595.19S180.51,346.87,299,274.83,622.64,513,622.64,513,795.84,711.6,918.9,662.07C449.43,694.34,55.12,685.41,55.12,685.41Z"/><path class="cls-88" d="M32,595.66S180.5,347.17,298.86,275.21,622.1,513.05,622.1,513.05,795.1,711.47,918,662C449.1,694.22,54.88,685.5,54.88,685.5Z"/><path class="cls-89" d="M31.91,596.14s148.57-248.67,266.8-320.55S621.56,513.15,621.56,513.15,794.35,711.34,917.13,661.92C448.77,694.11,54.63,685.6,54.63,685.6Z"/><path class="cls-90" d="M31.81,596.61S180.46,347.76,298.55,276,621,513.25,621,513.25s172.59,198,295.22,148.6C448.43,694,54.38,685.69,54.38,685.69Z"/><path class="cls-91" d="M31.71,597.08s148.74-249,266.68-320.73,322.09,237,322.09,237S792.86,711.07,915.35,661.77c-467.25,32.11-861.22,24-861.22,24Z"/><path class="cls-92" d="M31.6,597.55S180.43,348.36,298.24,276.74s321.7,236.71,321.7,236.71S792.12,710.93,914.46,661.69c-466.7,32.07-860.58,24.19-860.58,24.19Z"/><path class="cls-93" d="M31.5,598S180.41,348.65,298.08,277.12,619.4,513.55,619.4,513.55s172,197.25,294.17,148.07C447.43,693.65,53.63,686,53.63,686Z"/><path class="cls-94" d="M31.4,598.5s149-249.55,266.52-321S618.86,513.65,618.86,513.65s171.77,197,293.82,147.89c-465.59,32-859.3,24.52-859.3,24.52Z"/><path class="cls-95" d="M31.3,599S180.38,349.24,297.77,277.88,618.32,513.75,618.32,513.75,789.89,710.53,911.79,661.46c-465,32-858.66,24.7-858.66,24.7Z"/><path class="cls-96" d="M31.2,599.45S180.36,349.54,297.61,278.26,617.78,513.85,617.78,513.85,789.14,710.39,910.9,661.39c-464.48,31.92-858,24.86-858,24.86Z"/><path class="cls-97" d="M31.1,599.92S180.35,349.84,297.45,278.64,617.24,514,617.24,514,788.4,710.26,910,661.31c-463.92,31.88-857.37,25-857.37,25Z"/><path class="cls-98" d="M31,600.39S180.33,350.13,297.3,279s319.41,235,319.41,235S787.66,710.12,909.12,661.24c-463.37,31.84-856.73,25.2-856.73,25.2Z"/><path class="cls-99" d="M30.9,600.86S180.31,350.43,297.14,279.41s319,234.74,319,234.74S786.91,710,908.23,661.16C445.42,693,52.14,686.53,52.14,686.53Z"/><path class="cls-100" d="M30.79,601.34S180.3,350.73,297,279.79,615.63,514.25,615.63,514.25s170.54,195.6,291.71,146.83C445.08,692.85,51.89,686.62,51.89,686.62Z"/><path class="cls-101" d="M30.69,601.81S180.28,351,296.83,280.17,615.09,514.35,615.09,514.35,785.43,709.72,906.45,661c-461.7,31.73-854.81,25.71-854.81,25.71Z"/><path class="cls-102" d="M30.59,602.28s149.67-251,266.08-321.73,317.88,233.9,317.88,233.9,170.13,195.13,291,146.48C444.42,692.62,51.39,686.81,51.39,686.81Z"/><path class="cls-103" d="M30.49,602.75s149.76-251.14,266-321.82S614,514.55,614,514.55s169.93,194.9,290.67,146.3c-460.6,31.66-853.54,26.06-853.54,26.06Z"/><path class="cls-104" d="M30.39,603.23s149.84-251.32,266-321.92S613.47,514.65,613.47,514.65,783.19,709.31,903.79,660.78C443.75,692.39,50.9,687,50.9,687Z"/><path class="cls-105" d="M30.29,603.7s149.92-251.49,265.91-322S612.93,514.75,612.93,514.75s169.52,194.43,290,146C443.41,692.28,50.65,687.09,50.65,687.09Z"/><path class="cls-106" d="M30.19,604.17S180.19,352.5,296,282.07,612.39,514.85,612.39,514.85,781.71,709.05,902,660.63C443.08,692.16,50.4,687.19,50.4,687.19Z"/><path class="cls-107" d="M30.09,604.65S180.18,352.8,295.88,282.46,611.85,515,611.85,515s169.11,194,289.27,145.6c-458.38,31.5-851,26.73-851,26.73Z"/><path class="cls-108" d="M30,605.12s150.18-252,265.75-322.28S611.31,515.05,611.31,515.05,780.22,708.78,900.23,660.47C442.41,691.94,49.9,687.37,49.9,687.37Z"/><path class="cls-109" d="M29.88,605.59s150.26-252.2,265.69-322.37,315.2,231.93,315.2,231.93S779.47,708.64,899.34,660.4C442.07,691.82,49.65,687.47,49.65,687.47Z"/><path class="cls-110" d="M29.78,606.06S180.13,353.69,295.41,283.6,610.24,515.25,610.24,515.25,778.73,708.51,898.45,660.32c-456.71,31.39-849,27.24-849,27.24Z"/><path class="cls-111" d="M29.68,606.54S180.11,354,295.26,284,609.7,515.35,609.7,515.35,778,708.37,897.56,660.24C441.4,691.59,49.15,687.65,49.15,687.65Z"/><path class="cls-112" d="M29.58,607S180.09,354.28,295.1,284.36,609.16,515.45,609.16,515.45,777.24,708.24,896.67,660.17c-455.6,31.31-847.76,27.58-847.76,27.58Z"/><path class="cls-113" d="M29.48,607.48s150.6-252.9,265.46-322.74S608.62,515.55,608.62,515.55,776.5,708.1,895.78,660.09c-455,31.27-847.12,27.75-847.12,27.75Z"/><path class="cls-114" d="M29.38,608S180.06,354.87,294.79,285.13,608.08,515.65,608.08,515.65,775.76,708,894.89,660C440.4,691.25,48.41,687.93,48.41,687.93Z"/><path class="cls-115" d="M29.28,608.43S180,355.17,294.63,285.51,607.54,515.75,607.54,515.75,775,707.83,894,659.94C440.07,691.14,48.16,688,48.16,688Z"/><path class="cls-116" d="M29.17,608.9s150.86-253.44,265.3-323S607,515.85,607,515.85s167.27,191.85,286.12,144C439.73,691,47.91,688.12,47.91,688.12Z"/><path class="cls-117" d="M29.07,609.37S180,355.76,294.32,286.27,606.46,516,606.46,516,773.52,707.56,892.23,659.79C439.4,690.91,47.66,688.21,47.66,688.21Z"/><path class="cls-118" d="M29,609.84S180,356.06,294.16,286.65s311.76,229.4,311.76,229.4S772.78,707.43,891.34,659.71c-452.28,31.08-843.93,28.6-843.93,28.6Z"/><path class="cls-119" d="M28.87,610.32S180,356.35,294,287,605.38,516.15,605.38,516.15,772,707.29,890.45,659.64c-451.72,31-843.29,28.76-843.29,28.76Z"/><path class="cls-120" d="M28.77,610.79S180,356.65,293.85,287.41s311,228.84,311,228.84S771.29,707.16,889.56,659.56c-451.17,31-842.65,28.94-842.65,28.94Z"/><path class="cls-121" d="M28.67,611.26S179.94,357,293.69,287.79,604.3,516.35,604.3,516.35,770.55,707,888.67,659.48c-450.61,31-842,29.11-842,29.11Z"/><path class="cls-122" d="M28.57,611.74s151.36-254.5,265-323.56S603.76,516.45,603.76,516.45s166,190.44,284,143C437.72,690.34,46.42,688.68,46.42,688.68Z"/><path class="cls-123" d="M28.47,612.21s151.44-254.67,264.9-323.65,309.86,228,309.86,228,165.83,190.2,283.66,142.78c-449.5,30.89-840.72,29.45-840.72,29.45Z"/><path class="cls-124" d="M28.36,612.68S179.89,357.83,293.22,288.94,602.69,516.65,602.69,516.65s165.63,190,283.31,142.6C437.06,690.11,45.92,688.87,45.92,688.87Z"/><path class="cls-125" d="M28.26,613.15s151.61-255,264.8-323.83S602.15,516.75,602.15,516.75s165.42,189.74,283,142.43C436.72,690,45.67,689,45.67,689Z"/><path class="cls-126" d="M28.16,613.63S179.86,358.43,292.9,289.7,601.61,516.85,601.61,516.85,766.83,706.35,884.22,659.1c-447.83,30.78-838.8,30-838.8,30Z"/><path class="cls-127" d="M28.06,614.1s151.78-255.38,264.69-324S601.07,517,601.07,517,766.09,706.22,883.33,659C436.05,689.76,45.17,689.15,45.17,689.15Z"/><path class="cls-128" d="M28,614.57S179.82,359,292.59,290.46,600.53,517.05,600.53,517.05s164.81,189,281.92,141.9c-446.73,30.7-837.53,30.29-837.53,30.29Z"/><path class="cls-129" d="M27.86,615s152-255.72,264.57-324.2S600,517.15,600,517.15,764.6,706,881.56,658.87C435.38,689.53,44.68,689.34,44.68,689.34Z"/><path class="cls-130" d="M27.76,615.52s152-255.91,264.52-324.29,307.17,226,307.17,226S763.85,705.81,880.67,658.8C435.05,689.42,44.43,689.43,44.43,689.43Z"/><path class="cls-131" d="M27.66,616S179.77,359.91,292.12,291.61,598.91,517.35,598.91,517.35s164.2,188.33,280.87,141.37c-445.07,30.59-835.6,30.8-835.6,30.8Z"/><path class="cls-132" d="M27.55,616.46S179.76,360.2,292,292,598.37,517.45,598.37,517.45s164,188.09,280.52,141.19c-444.51,30.55-835,31-835,31Z"/><path class="cls-133" d="M27.45,616.94S179.74,360.5,291.81,292.37s306,225.17,306,225.17S761.62,705.41,878,658.57C434,689.08,43.68,689.71,43.68,689.71Z"/><path class="cls-134" d="M27.35,617.41S179.72,360.8,291.65,292.75,597.29,517.64,597.29,517.64,760.88,705.27,877.11,658.49C433.71,689,43.43,689.8,43.43,689.8Z"/><path class="cls-135" d="M27.25,617.88S179.71,361.09,291.49,293.13,596.76,517.74,596.76,517.74s163.38,187.4,279.46,140.68c-442.84,30.43-833,31.48-833,31.48Z"/><path class="cls-136" d="M27.15,618.35s152.54-257,264.19-324.84S596.22,517.84,596.22,517.84,759.39,705,875.33,658.34C433,688.73,42.93,690,42.93,690Z"/><path class="cls-137" d="M27.05,618.83S179.67,361.68,291.18,293.9s304.5,224,304.5,224,163,186.93,278.76,140.32C432.71,688.62,42.69,690.09,42.69,690.09Z"/><path class="cls-138" d="M27,619.3S179.66,362,291,294.28,595.14,518,595.14,518,757.9,704.73,873.55,658.19c-441.18,30.32-831.11,32-831.11,32Z"/><path class="cls-139" d="M26.85,619.77s152.79-257.49,264-325.11S594.6,518.14,594.6,518.14s162.56,186.46,278.06,140C432,688.39,42.19,690.27,42.19,690.27Z"/><path class="cls-140" d="M26.74,620.24s152.88-257.67,264-325.2,303.35,223.2,303.35,223.2S756.42,704.46,871.77,658C431.7,688.28,41.94,690.37,41.94,690.37Z"/><path class="cls-141" d="M26.64,620.72s153-257.85,263.91-325.3,303,222.92,303,222.92S755.67,704.33,870.89,658c-439.52,30.2-829.2,32.5-829.2,32.5Z"/><path class="cls-142" d="M26.54,621.19s153.05-258,263.85-325.39S593,518.44,593,518.44,754.93,704.19,870,657.88C431,688.05,41.44,690.55,41.44,690.55Z"/><path class="cls-143" d="M26.44,621.66s153.13-258.2,263.8-325.48,302.2,222.36,302.2,222.36S754.18,704.06,869.11,657.81C430.7,687.93,41.19,690.65,41.19,690.65Z"/><path class="cls-144" d="M26.34,622.13S179.55,363.76,290.08,296.56,591.9,518.64,591.9,518.64,753.44,703.93,868.22,657.73c-437.86,30.09-827.28,33-827.28,33Z"/><path class="cls-145" d="M26.24,622.61S179.54,364.05,289.92,297,591.36,518.74,591.36,518.74s161.34,185,276,138.91C430,687.71,40.7,690.83,40.7,690.83Z"/><path class="cls-146" d="M26.14,623.08S179.52,364.35,289.77,297.33,590.82,518.84,590.82,518.84,752,703.66,866.44,657.58c-436.74,30-826,33.35-826,33.35Z"/><path class="cls-147" d="M26,623.55S179.5,364.65,289.61,297.71,590.28,518.94,590.28,518.94,751.21,703.52,865.55,657.5C429.36,687.48,40.2,691,40.2,691Z"/><path class="cls-148" d="M25.93,624S179.49,364.94,289.45,298.09s300.3,221,300.3,221S750.47,703.39,864.66,657.43C429,687.36,40,691.11,40,691.11Z"/><path class="cls-149" d="M25.83,624.5s153.64-259.26,263.47-326S589.21,519.14,589.21,519.14,749.72,703.25,863.77,657.35C428.69,687.25,39.7,691.21,39.7,691.21Z"/><path class="cls-150" d="M25.73,625S179.45,365.54,289.14,298.85,588.67,519.24,588.67,519.24,749,703.12,862.88,657.27c-434.52,29.86-823.43,34-823.43,34Z"/><path class="cls-151" d="M25.63,625.44S179.44,365.83,289,299.23,588.13,519.34,588.13,519.34,748.23,703,862,657.2C428,687,39.2,691.39,39.2,691.39Z"/><path class="cls-152" d="M25.53,625.92s153.89-259.79,263.3-326.3S587.59,519.44,587.59,519.44,747.49,702.85,861.1,657.12C427.69,686.91,39,691.49,39,691.49Z"/><path class="cls-153" d="M25.43,626.39s154-260,263.24-326.39S587.05,519.54,587.05,519.54,746.75,702.71,860.21,657c-432.86,29.75-821.5,34.54-821.5,34.54Z"/><path class="cls-154" d="M25.33,626.86S179.39,366.72,288.51,300.38s298,219.26,298,219.26S746,702.58,859.33,657C427,686.68,38.46,691.68,38.46,691.68Z"/><path class="cls-155" d="M25.23,627.33S179.37,367,288.36,300.76,586,519.74,586,519.74s159.29,182.7,272.47,137.15C426.68,686.56,38.21,691.77,38.21,691.77Z"/><path class="cls-156" d="M25.12,627.81S179.35,367.31,288.2,301.14s297.23,218.7,297.23,218.7,159.08,182.47,272.12,137c-431.2,29.63-819.59,35-819.59,35Z"/><path class="cls-157" d="M25,628.28S179.34,367.61,288,301.52,584.89,519.94,584.89,519.94s158.88,182.23,271.77,136.8C426,686.33,37.71,692,37.71,692Z"/><path class="cls-158" d="M24.92,628.75s154.4-260.84,263-326.85S584.35,520,584.35,520,743,702,855.77,656.66C425.68,686.22,37.46,692.05,37.46,692.05Z"/><path class="cls-159" d="M24.82,629.23s154.48-261,262.91-327S583.81,520.14,583.81,520.14,742.28,701.9,854.88,656.59C425.35,686.11,37.21,692.14,37.21,692.14Z"/><path class="cls-160" d="M24.72,629.7s154.57-261.2,262.85-327S583.28,520.24,583.28,520.24,741.54,701.77,854,656.51C425,686,37,692.24,37,692.24Z"/><path class="cls-161" d="M24.62,630.17S179.27,368.79,287.41,303.05,582.74,520.34,582.74,520.34,740.8,701.64,853.1,656.43c-428.42,29.45-816.38,35.9-816.38,35.9Z"/><path class="cls-162" d="M24.52,630.64S179.25,369.09,287.26,303.43s294.94,217,294.94,217,157.85,181.06,270,135.92c-427.87,29.4-815.74,36.06-815.74,36.06Z"/><path class="cls-163" d="M24.42,631.12S179.23,369.39,287.1,303.81,581.66,520.54,581.66,520.54,739.31,701.37,851.32,656.28C424,685.65,36.22,692.52,36.22,692.52Z"/><path class="cls-164" d="M24.31,631.59s154.91-261.91,262.63-327.4S581.12,520.64,581.12,520.64,738.56,701.23,850.43,656.21C423.67,685.53,36,692.61,36,692.61Z"/><path class="cls-165" d="M24.21,632.06S179.2,370,286.79,304.57,580.58,520.74,580.58,520.74s157.24,180.36,269,135.39C423.34,685.42,35.72,692.7,35.72,692.7Z"/><path class="cls-166" d="M24.11,632.53S179.18,370.27,286.63,305,580,520.84,580,520.84,737.08,701,848.65,656.05C423,685.3,35.47,692.8,35.47,692.8Z"/><path class="cls-167" d="M24,633S179.17,370.57,286.47,305.34s293,215.6,293,215.6S736.33,700.83,847.77,656c-425.1,29.21-812.55,36.91-812.55,36.91Z"/><path class="cls-168" d="M23.91,633.48S179.15,370.87,286.32,305.72,579,521,579,521,735.59,700.69,846.88,655.9C422.33,685.08,35,693,35,693Z"/><path class="cls-169" d="M23.81,634S179.13,371.16,286.16,306.1s292.26,215,292.26,215S734.84,700.56,846,655.82C422,685,34.72,693.08,34.72,693.08Z"/><path class="cls-170" d="M23.71,634.43S179.12,371.46,286,306.48,577.88,521.24,577.88,521.24,734.1,700.42,845.1,655.75c-423.43,29.1-810.62,37.42-810.62,37.42Z"/><path class="cls-171" d="M23.61,634.9s155.49-263.14,262.24-328S577.34,521.34,577.34,521.34s156,178.95,266.87,134.33c-422.88,29.06-810,37.6-810,37.6Z"/><path class="cls-172" d="M23.5,635.37S179.08,372.05,285.69,307.24,576.8,521.44,576.8,521.44,732.61,700.15,843.32,655.6C421,684.62,34,693.36,34,693.36Z"/><path class="cls-173" d="M23.4,635.84S179.07,372.35,285.53,307.62,576.27,521.54,576.27,521.54s155.6,178.48,266.16,134c-421.77,29-808.7,37.93-808.7,37.93Z"/><path class="cls-174" d="M23.3,636.32S179.05,372.64,285.38,308,575.73,521.64,575.73,521.64s155.4,178.24,265.81,133.8C420.33,684.39,33.48,693.55,33.48,693.55Z"/><path class="cls-175" d="M23.2,636.79s155.83-263.85,262-328.4,290,213.35,290,213.35,155.19,178,265.46,133.63C420,684.28,33.23,693.64,33.23,693.64Z"/><path class="cls-176" d="M23.1,637.26s155.92-264,262-328.49S574.65,521.84,574.65,521.84s155,177.77,265.11,133.45C419.66,684.16,33,693.73,33,693.73Z"/><path class="cls-177" d="M23,637.73s156-264.2,261.9-328.58S574.11,521.94,574.11,521.94,728.89,699.48,838.87,655.22C419.32,684.05,32.73,693.83,32.73,693.83Z"/><path class="cls-178" d="M22.9,638.21S179,373.83,284.75,309.53,573.57,522,573.57,522,728.15,699.34,838,655.14C419,683.93,32.49,693.92,32.49,693.92Z"/><path class="cls-179" d="M22.8,638.68S179,374.13,284.59,309.91,573,522.14,573,522.14,727.41,699.21,837.09,655.06C418.65,683.82,32.24,694,32.24,694Z"/><path class="cls-180" d="M22.69,639.15S179,374.42,284.43,310.29s288.06,212,288.06,212S726.66,699.08,836.21,655C418.32,683.7,32,694.11,32,694.11Z"/><path class="cls-181" d="M22.59,639.62s156.34-264.9,261.69-328.95S572,522.34,572,522.34s154,176.6,263.37,132.57C418,683.59,31.74,694.2,31.74,694.2Z"/><path class="cls-182" d="M22.49,640.1S178.92,375,284.12,311.05,571.41,522.44,571.41,522.44s153.76,176.37,263,132.39C417.65,683.48,31.49,694.29,31.49,694.29Z"/><path class="cls-183" d="M22.39,640.57S178.9,375.31,284,311.44s286.91,211.1,286.91,211.1S724.43,698.67,833.54,654.76c-416.22,28.6-802.3,39.63-802.3,39.63Z"/><path class="cls-184" d="M22.29,641S178.88,375.61,283.81,311.82,570.33,522.64,570.33,522.64s153.36,175.9,262.32,132C417,683.25,31,694.48,31,694.48Z"/><path class="cls-185" d="M22.19,641.52S178.86,375.9,283.65,312.2,569.8,522.74,569.8,522.74s153.14,175.66,262,131.87c-415.11,28.52-801,40-801,40Z"/><path class="cls-186" d="M22.09,642S178.85,376.2,283.49,312.58,569.26,522.84,569.26,522.84,722.2,698.27,830.87,654.53C416.31,683,30.5,694.67,30.5,694.67Z"/><path class="cls-187" d="M22,642.46s156.84-266,261.35-329.5,285.38,210,285.38,210S721.46,698.13,830,654.45C416,682.9,30.25,694.76,30.25,694.76Z"/><path class="cls-188" d="M21.88,642.93s156.93-266.14,261.3-329.59,285,209.7,285,209.7S720.71,698,829.09,654.38C415.64,682.79,30,694.86,30,694.86Z"/><path class="cls-189" d="M21.78,643.41S178.8,377.09,283,313.72,567.64,523.14,567.64,523.14,720,697.86,828.2,654.3C415.31,682.68,29.75,695,29.75,695Z"/><path class="cls-190" d="M21.68,643.88s157.1-266.5,261.19-329.77S567.1,523.24,567.1,523.24s152.12,174.49,260.21,131C415,682.56,29.5,695,29.5,695Z"/><path class="cls-191" d="M21.58,644.35S178.76,377.68,282.71,314.49,566.56,523.34,566.56,523.34,718.48,697.59,826.42,654.15c-411.78,28.3-797.17,41-797.17,41Z"/><path class="cls-192" d="M21.48,644.82S178.75,378,282.55,314.87,566,523.44,566,523.44s151.72,174,259.51,130.63C414.31,682.33,29,695.23,29,695.23Z"/><path class="cls-193" d="M21.38,645.3s157.35-267,261-330S565.48,523.54,565.48,523.54,717,697.32,824.65,654C414,682.22,28.75,695.32,28.75,695.32Z"/><path class="cls-194" d="M21.28,645.77s157.43-267.2,261-330.14,282.7,208,282.7,208S716.25,697.19,823.76,653.92c-410.12,28.18-795.25,41.5-795.25,41.5Z"/><path class="cls-195" d="M21.18,646.24S178.7,378.86,282.08,316,564.4,523.74,564.4,523.74s151.1,173.31,258.47,130.1C413.3,682,28.26,695.51,28.26,695.51Z"/><path class="cls-196" d="M21.07,646.72S178.68,379.16,281.92,316.39,563.86,523.84,563.86,523.84,714.76,696.92,822,653.77C413,681.88,28,695.6,28,695.6Z"/><path class="cls-197" d="M21,647.19s157.69-267.73,260.8-330.42S563.32,523.94,563.32,523.94,714,696.78,821.09,653.69c-408.46,28.07-793.33,42-793.33,42Z"/><path class="cls-198" d="M20.87,647.66s157.78-267.91,260.74-330.5S562.79,524,562.79,524,713.27,696.65,820.2,653.61c-407.9,28-792.69,42.18-792.69,42.18Z"/><path class="cls-199" d="M20.77,648.13S178.63,380.05,281.45,317.54s280.8,206.6,280.8,206.6,150.28,172.38,257.06,129.4c-407.35,28-792,42.34-792,42.34Z"/><path class="cls-200" d="M20.67,648.61S178.61,380.35,281.3,317.92,561.71,524.24,561.71,524.24,711.79,696.38,818.42,653.46C411.63,681.42,27,696,27,696Z"/><path class="cls-201" d="M20.57,649.08s158-268.44,260.57-330.78,280,206,280,206S711,696.25,817.53,653.39C411.29,681.3,26.76,696.07,26.76,696.07Z"/><path class="cls-202" d="M20.47,649.55S178.58,380.94,281,318.68,560.63,524.44,560.63,524.44s149.67,171.67,256,128.87C411,681.19,26.52,696.17,26.52,696.17Z"/><path class="cls-203" d="M20.37,650s158.19-268.79,260.46-331S560.09,524.54,560.09,524.54,709.55,696,815.75,653.23c-405.13,27.84-789.48,43-789.48,43Z"/><path class="cls-204" d="M20.26,650.5s158.28-269,260.41-331.06,278.88,205.2,278.88,205.2,149.26,171.2,255.31,128.52C410.29,681,26,696.35,26,696.35Z"/><path class="cls-205" d="M20.16,651S178.53,381.83,280.51,319.83,559,524.74,559,524.74s149.06,171,255,128.34c-404,27.77-788.2,43.37-788.2,43.37Z"/><path class="cls-206" d="M20.06,651.44s158.45-269.32,260.3-331.23S558.47,524.84,558.47,524.84,707.32,695.57,813.09,653C409.62,680.73,25.52,696.54,25.52,696.54Z"/><path class="cls-207" d="M20,651.91S178.49,382.42,280.2,320.59,557.93,524.94,557.93,524.94s148.65,170.5,254.27,128c-402.91,27.69-786.93,43.7-786.93,43.7Z"/><path class="cls-208" d="M19.86,652.39S178.48,382.71,280,321,557.39,525,557.39,525,705.84,695.3,811.31,652.85C409,680.5,25,696.73,25,696.73Z"/><path class="cls-209" d="M19.76,652.86S178.46,383,279.89,321.35s277,203.79,277,203.79,148.24,170,253.57,127.64c-401.8,27.61-785.65,44-785.65,44Z"/><path class="cls-210" d="M19.66,653.33s158.78-270,260.07-331.6S556.32,525.24,556.32,525.24,704.35,695,809.53,652.7c-401.25,27.57-785,44.21-785,44.21Z"/><path class="cls-211" d="M19.56,653.81s158.87-270.21,260-331.7S555.78,525.34,555.78,525.34,703.6,694.9,808.64,652.62C408,680.16,24.28,697,24.28,697Z"/><path class="cls-212" d="M19.45,654.28s159-270.38,260-331.79,275.82,203,275.82,203S702.86,694.76,807.75,652.55C407.61,680.05,24,697.1,24,697.1Z"/><path class="cls-213" d="M19.35,654.75s159-270.55,259.91-331.87S554.7,525.54,554.7,525.54,702.12,694.63,806.86,652.47C407.28,679.93,23.78,697.19,23.78,697.19Z"/><path class="cls-214" d="M19.25,655.22s159.13-270.73,259.85-332S554.16,525.64,554.16,525.64,701.37,694.49,806,652.4c-399,27.42-782.44,44.89-782.44,44.89Z"/><path class="cls-215" d="M19.15,655.7S178.36,384.79,278.94,323.64s274.68,202.1,274.68,202.1,147,168.62,251.46,126.58c-398.47,27.38-781.8,45.06-781.8,45.06Z"/><path class="cls-216" d="M19.05,656.17S178.34,385.08,278.79,324,553.08,525.84,553.08,525.84s146.8,168.39,251.11,126.4C406.28,679.59,23,697.47,23,697.47Z"/><path class="cls-217" d="M19,656.64S178.33,385.38,278.63,324.4,552.54,525.94,552.54,525.94,699.14,694.09,803.3,652.17c-397.36,27.3-780.52,45.4-780.52,45.4Z"/><path class="cls-218" d="M18.85,657.11S178.31,385.68,278.47,324.78,552,526,552,526,698.4,694,802.41,652.09c-396.8,27.27-779.88,45.57-779.88,45.57Z"/><path class="cls-219" d="M18.75,657.59S178.29,386,278.32,325.16s273.14,201,273.14,201S697.65,693.82,801.52,652C405.27,679.25,22.29,697.76,22.29,697.76Z"/><path class="cls-220" d="M18.64,658.06S178.28,386.27,278.16,325.55,550.92,526.24,550.92,526.24s146,167.45,249.72,125.7C404.94,679.13,22,697.85,22,697.85Z"/><path class="cls-221" d="M18.54,658.53s159.72-272,259.46-332.6S550.38,526.34,550.38,526.34,696.17,693.55,799.75,651.86c-395.15,27.16-778,46.08-778,46.08Z"/><path class="cls-222" d="M18.44,659s159.8-272.15,259.41-332.7,272,200.13,272,200.13,145.58,167,249,125.35C404.27,678.9,21.54,698,21.54,698Z"/><path class="cls-223" d="M18.34,659.48S178.22,387.16,277.69,326.69,549.31,526.54,549.31,526.54,694.68,693.28,798,651.71c-394,27.08-776.68,46.42-776.68,46.42Z"/><path class="cls-224" d="M18.24,660s160-272.5,259.29-332.88S548.77,526.64,548.77,526.64s145.16,166.51,248.31,125c-393.48,27-776,46.59-776,46.59Z"/><path class="cls-225" d="M18.14,660.42s160.05-272.67,259.24-333S548.23,526.74,548.23,526.74s145,166.27,248,124.82c-392.93,27-775.4,46.76-775.4,46.76Z"/><path class="cls-226" d="M18,660.9S178.17,388.05,277.22,327.83s270.47,199,270.47,199,144.76,166,247.61,124.64c-392.37,27-774.76,46.93-774.76,46.93Z"/><path class="cls-227" d="M17.94,661.37s160.22-273,259.12-333.16S547.15,526.94,547.15,526.94,691.7,692.74,794.41,651.4C402.6,678.33,20.3,698.5,20.3,698.5Z"/><path class="cls-228" d="M17.83,661.84S178.14,388.64,276.91,328.6,546.61,527,546.61,527,691,692.61,793.52,651.33C402.26,678.22,20.05,698.6,20.05,698.6Z"/><path class="cls-229" d="M17.73,662.31S178.12,388.94,276.75,329,546.07,527.14,546.07,527.14,690.21,692.47,792.63,651.25C401.93,678.1,19.8,698.69,19.8,698.69Z"/><path class="cls-230" d="M17.63,662.79s160.48-273.56,259-333.43S545.53,527.24,545.53,527.24s143.94,165.1,246.21,123.94C401.59,678,19.55,698.78,19.55,698.78Z"/><path class="cls-231" d="M17.53,663.26s160.56-273.73,258.9-333.52S545,527.34,545,527.34,688.73,692.2,790.85,651.1C401.26,677.87,19.3,698.88,19.3,698.88Z"/><path class="cls-232" d="M17.43,663.73S178.07,389.82,276.28,330.12,544.45,527.44,544.45,527.44,688,692.07,790,651c-389,26.74-770.91,48-770.91,48Z"/><path class="cls-233" d="M17.33,664.21S178.06,390.12,276.12,330.5s267.79,197,267.79,197S687.24,691.93,789.08,651C400.59,677.65,18.8,699.06,18.8,699.06Z"/><path class="cls-234" d="M17.23,664.68S178,390.42,276,330.88,543.37,527.64,543.37,527.64,686.5,691.8,788.19,650.87C400.25,677.53,18.55,699.16,18.55,699.16Z"/><path class="cls-235" d="M17.13,665.15S178,390.71,275.81,331.26s267,196.48,267,196.48S685.75,691.67,787.3,650.8c-387.38,26.62-769,48.45-769,48.45Z"/><path class="cls-236" d="M17,665.62S178,391,275.65,331.65,542.3,527.84,542.3,527.84,685,691.53,786.41,650.72C399.58,677.3,18.06,699.35,18.06,699.35Z"/><path class="cls-237" d="M16.92,666.1S178,391.3,275.49,332,541.76,527.94,541.76,527.94s142.5,163.46,243.76,122.7c-386.27,26.55-767.71,48.8-767.71,48.8Z"/><path class="cls-238" d="M16.82,666.57S178,391.6,275.34,332.41,541.22,528,541.22,528s142.3,163.22,243.41,122.53c-385.71,26.5-767.07,49-767.07,49Z"/><path class="cls-239" d="M16.72,667S178,391.9,275.18,332.79s265.5,195.35,265.5,195.35,142.1,163,243.06,122.35C398.58,677,17.31,699.63,17.31,699.63Z"/><path class="cls-240" d="M16.62,667.51S177.94,392.19,275,333.17,540.14,528.24,540.14,528.24,682,691,782.85,650.41c-384.6,26.43-765.79,49.31-765.79,49.31Z"/><path class="cls-241" d="M16.52,668s161.4-275.5,258.35-334.44S539.6,528.34,539.6,528.34,681.29,690.86,782,650.34c-384,26.39-765.15,49.47-765.15,49.47Z"/><path class="cls-242" d="M16.42,668.46S177.9,392.79,274.71,333.93,539.06,528.44,539.06,528.44s141.48,162.28,242,121.82C397.58,676.62,16.56,699.91,16.56,699.91Z"/><path class="cls-243" d="M16.32,668.93S177.89,393.08,274.55,334.32s264,194.22,264,194.22S679.8,690.59,780.18,650.19C397.24,676.5,16.32,700,16.32,700Z"/><path class="cls-244" d="M1187,544.62s-71.16-112-141.45-137.86S920.06,296.6,859.81,326.36,689.09,376,573.61,544.62,518.1,687.06,518.1,687.06l637.95,1.47Z"/><path class="cls-245" d="M1186.81,544.78s-71.1-111.84-141.35-137.62S920,297.19,859.8,326.9s-170.61,49.52-286,217.88S518.31,687,518.31,687l637.54,1.47Z"/><path class="cls-246" d="M1186.59,544.94s-71.06-111.64-141.26-137.38S920,297.79,859.79,327.45,689.3,376.88,574,544.94s-55.43,141.94-55.43,141.94l637.12,1.47Z"/><path class="cls-247" d="M1186.36,545.1s-71-111.45-141.16-137.14S919.91,298.38,859.78,328,689.4,377.33,574.14,545.1s-55.4,141.69-55.4,141.69l636.7,1.47Z"/><path class="cls-248" d="M1186.14,545.26s-71-111.25-141.08-136.9S919.87,299,859.77,328.53,689.5,377.79,574.32,545.26,519,686.7,519,686.7l636.29,1.47Z"/><path class="cls-249" d="M1185.92,545.42s-70.92-111-141-136.66S919.82,299.57,859.76,329.07,689.6,378.24,574.49,545.42s-55.32,141.19-55.32,141.19L1155,688.08Z"/><path class="cls-250" d="M1185.69,545.58s-70.87-110.86-140.89-136.42-125-109-185-79.55-170,49.09-285.08,216-55.29,140.95-55.29,140.95L1154.83,688Z"/><path class="cls-251" d="M1185.47,545.74s-70.83-110.66-140.8-136.17-125-108.81-184.93-79.41-169.94,49-284.89,215.58-55.26,140.7-55.26,140.7l635,1.45Z"/><path class="cls-252" d="M1185.24,545.9S1114.47,435.44,1044.54,410,919.67,301.35,859.73,330.7,689.91,379.61,575,545.9s-55.22,140.45-55.22,140.45l634.61,1.45Z"/><path class="cls-253" d="M1185,546.06s-70.73-110.27-140.61-135.69S919.62,302,859.72,331.24,690,380.06,575.2,546.06,520,686.26,520,686.26l634.2,1.45Z"/><path class="cls-254" d="M1184.8,546.22s-70.69-110.07-140.52-135.45-124.71-108.23-184.57-79-169.6,48.74-284.33,214.44-55.15,139.95-55.15,139.95L1154,687.62Z"/><path class="cls-255" d="M1184.57,546.38s-70.64-109.87-140.43-135.21-124.62-108-184.44-78.85S690.21,381,575.56,546.38s-55.11,139.7-55.11,139.7l633.36,1.45Z"/><path class="cls-256" d="M1184.35,546.54s-70.59-109.68-140.34-135-124.54-107.84-184.32-78.7-169.38,48.56-284,213.67S520.66,686,520.66,686l632.95,1.45Z"/><path class="cls-257" d="M1184.13,546.7S1113.58,437.22,1043.88,412s-124.46-107.65-184.2-78.56S690.42,381.88,575.91,546.7s-55,139.21-55,139.21l632.53,1.44Z"/><path class="cls-258" d="M1183.9,546.86s-70.5-109.29-140.15-134.48S919.37,304.92,859.67,334,690.52,382.34,576.09,546.86s-55,139-55,139l632.11,1.43Z"/><path class="cls-259" d="M1183.68,547s-70.46-109.09-140.06-134.24-124.3-107.27-184-78.29-169,48.3-283.39,212.53-55,138.71-55,138.71l631.7,1.43Z"/><path class="cls-260" d="M1183.45,547.19s-70.4-108.9-140-134S919.27,306.1,859.65,335,690.72,383.25,576.44,547.19s-54.92,138.45-54.92,138.45l631.28,1.43Z"/><path class="cls-261" d="M1183.23,547.35s-70.36-108.71-139.87-133.77-124.13-106.88-183.72-78-168.82,48.13-283,211.77-54.89,138.2-54.89,138.2L1152.59,687Z"/><path class="cls-262" d="M1183,547.51S1112.69,439,1043.23,414s-124.05-106.69-183.6-77.86-168.7,48-282.83,211.39-54.86,138-54.86,138l630.45,1.43Z"/><path class="cls-263" d="M1182.78,547.67s-70.26-108.31-139.69-133.29-124-106.49-183.47-77.72S691,384.62,577,547.67s-54.82,137.7-54.82,137.7l630,1.43Z"/><path class="cls-264" d="M1182.56,547.83S1112.34,439.71,1043,414.78,919.08,308.48,859.61,337.2,691.13,385.07,577.15,547.83s-54.78,137.45-54.78,137.45L1152,686.71Z"/><path class="cls-265" d="M1182.33,548s-70.17-107.92-139.5-132.8S919,309.07,859.6,337.74,691.23,385.53,577.33,548,522.59,685.2,522.59,685.2l629.19,1.42Z"/><path class="cls-266" d="M1182.11,548.15S1112,440.42,1042.7,415.59,919,309.67,859.59,338.29,691.33,386,577.51,548.15s-54.71,137-54.71,137l628.77,1.42Z"/><path class="cls-267" d="M1181.89,548.31S1111.81,440.78,1042.57,416s-123.64-105.73-183-77.16S691.43,386.44,577.69,548.31,523,685,523,685l628.36,1.41Z"/><path class="cls-268" d="M1181.66,548.47s-70-107.33-139.22-132.08-123.56-105.53-182.87-77-168,47.52-281.71,209.1-54.63,136.46-54.63,136.46l627.94,1.41Z"/><path class="cls-269" d="M1181.44,548.63s-70-107.14-139.13-131.84S918.83,311.45,859.56,339.91,691.64,387.35,578,548.63s-54.6,136.21-54.6,136.21L1151,686.25Z"/><path class="cls-270" d="M1181.22,548.79s-70-106.94-139-131.6S918.78,312,859.55,340.45,691.74,387.8,578.22,548.79s-54.57,136-54.57,136l627.11,1.41Z"/><path class="cls-271" d="M1181,549s-69.89-106.74-139-131.36S918.73,312.64,859.54,341,691.84,388.26,578.4,549s-54.53,135.71-54.53,135.71l626.69,1.41Z"/><path class="cls-272" d="M1180.77,549.11S1110.92,442.56,1041.91,418,918.68,313.23,859.53,341.54s-167.59,47.17-281,207.57-54.49,135.47-54.49,135.47l626.27,1.4Z"/><path class="cls-273" d="M1180.54,549.27s-69.8-106.35-138.76-130.87S918.63,313.83,859.52,342.08,692.05,389.17,578.75,549.27s-54.46,135.22-54.46,135.22l625.86,1.4Z"/><path class="cls-274" d="M1180.32,549.43s-69.75-106.16-138.67-130.63S918.59,314.42,859.51,342.62s-167.36,47-280.58,206.81-54.42,135-54.42,135L1150,685.8Z"/><path class="cls-275" d="M1180.1,549.59s-69.71-106-138.58-130.39-123-104.19-182-76S692.25,390.08,579.11,549.59s-54.39,134.72-54.39,134.72l625,1.39Z"/><path class="cls-276" d="M1179.87,549.75S1110.21,444,1041.39,419.6s-122.9-104-181.9-75.89-167.14,46.82-280.21,206-54.34,134.47-54.34,134.47l624.6,1.39Z"/><path class="cls-277" d="M1179.65,549.91S1110,444.34,1041.26,420,918.44,316.2,859.48,344.25s-167,46.74-280,205.66-54.31,134.22-54.31,134.22l624.18,1.39Z"/><path class="cls-278" d="M1179.42,550.07s-69.56-105.37-138.3-129.67S918.39,316.8,859.47,344.79,692.55,391.44,579.64,550.07s-54.28,134-54.28,134l623.77,1.39Z"/><path class="cls-279" d="M1179.2,550.23S1109.68,445.06,1041,420.81,918.34,317.39,859.47,345.33,692.66,391.9,579.81,550.23,525.58,684,525.58,684l623.35,1.38Z"/><path class="cls-280" d="M1179,550.39s-69.48-105-138.12-129.18S918.29,318,859.46,345.87,692.76,392.36,580,550.39s-54.2,133.48-54.2,133.48l622.93,1.38Z"/><path class="cls-281" d="M1178.75,550.55s-69.43-104.78-138-128.94-122.49-103-181.28-75.19S692.86,392.81,580.17,550.55,526,683.78,526,683.78l622.52,1.38Z"/><path class="cls-282" d="M1178.53,550.71S1109.15,446.12,1040.6,422,918.19,319.17,859.44,347,693,393.27,580.35,550.71s-54.13,133-54.13,133l622.1,1.38Z"/><path class="cls-283" d="M1178.31,550.87S1109,446.48,1040.47,422.41s-122.33-102.64-181-74.91S693.06,393.72,580.52,550.87,526.43,683.6,526.43,683.6L1148.11,685Z"/><path class="cls-284" d="M1178.08,551s-69.29-104.2-137.74-128.23S918.09,320.36,859.42,348,693.17,394.18,580.7,551s-54.05,132.47-54.05,132.47l621.26,1.37Z"/><path class="cls-285" d="M1177.86,551.2s-69.25-104-137.66-128S918,321,859.41,348.58,693.27,394.63,580.88,551.2s-54,132.22-54,132.22l620.85,1.37Z"/><path class="cls-286" d="M1177.63,551.36s-69.19-103.81-137.56-127.74S918,321.55,859.4,349.13s-166,46-278.34,202.23-54,132-54,132l620.43,1.36Z"/><path class="cls-287" d="M1177.41,551.52S1108.26,447.91,1039.94,424s-122-101.88-180.55-74.35S693.47,395.54,581.23,551.52s-53.94,131.73-53.94,131.73l620,1.36Z"/><path class="cls-288" d="M1177.19,551.68s-69.11-103.42-137.38-127.26S917.9,322.74,859.38,350.21,693.57,396,581.41,551.68,527.5,683.16,527.5,683.16l619.6,1.36Z"/><path class="cls-289" d="M1177,551.84s-69-103.22-137.28-127S917.85,323.33,859.37,350.75s-165.7,45.7-277.78,201.09-53.88,131.23-53.88,131.23l619.18,1.36Z"/><path class="cls-290" d="M1176.74,552s-69-103-137.19-126.78S917.8,323.92,859.36,351.29,693.78,396.91,581.77,552s-53.84,131-53.84,131l618.76,1.36Z"/><path class="cls-291" d="M1176.51,552.16s-69-102.83-137.09-126.54-121.67-101.1-180.07-73.78S693.88,397.36,581.94,552.16s-53.8,130.73-53.8,130.73l618.34,1.36Z"/><path class="cls-292" d="M1176.29,552.32s-68.92-102.63-137-126.3S917.7,325.11,859.34,352.38,694,397.82,582.12,552.32,528.35,682.8,528.35,682.8l617.93,1.36Z"/><path class="cls-293" d="M1176.07,552.48s-68.87-102.44-136.92-126-121.5-100.72-179.82-73.51-165.25,45.35-277,199.56-53.73,130.24-53.73,130.24l617.51,1.34Z"/><path class="cls-294" d="M1175.84,552.64S1107,450.4,1039,426.83,917.6,326.3,859.32,353.46,694.18,398.73,582.48,552.64s-53.7,130-53.7,130L1145.87,684Z"/><path class="cls-295" d="M1175.62,552.8s-68.78-102-136.73-125.57S917.55,326.89,859.31,354s-165,45.18-276.66,198.8S529,682.54,529,682.54l616.67,1.34Z"/><path class="cls-296" d="M1175.4,553s-68.74-101.85-136.64-125.33S917.5,327.49,859.3,354.54,694.39,399.64,582.83,553s-53.62,129.49-53.62,129.49l616.26,1.34Z"/><path class="cls-297" d="M1175.17,553.12S1106.49,451.47,1038.63,428s-121.18-99.95-179.34-72.94-164.8,45-276.28,198-53.59,129.24-53.59,129.24l615.84,1.34Z"/><path class="cls-298" d="M1175,553.28s-68.64-101.45-136.45-124.85-121.1-99.75-179.22-72.8-164.69,44.92-276.1,197.65-53.54,129-53.54,129l615.42,1.34Z"/><path class="cls-299" d="M1174.72,553.44s-68.59-101.26-136.35-124.61-121-99.56-179.1-72.66S694.69,401,583.36,553.44s-53.51,128.74-53.51,128.74l615,1.34Z"/><path class="cls-300" d="M1174.5,553.6S1106,452.54,1038.23,429.24s-120.93-99.38-179-72.53S694.79,401.46,583.54,553.6s-53.48,128.5-53.48,128.5l614.59,1.33Z"/><path class="cls-301" d="M1174.28,553.76s-68.5-100.87-136.18-124.12-120.84-99.18-178.85-72.39S694.9,401.92,583.72,553.76,530.28,682,530.28,682l614.17,1.32Z"/><path class="cls-302" d="M1174.05,553.92S1105.6,453.25,1038,430s-120.76-99-178.73-72.24S695,402.37,583.89,553.92s-53.4,128-53.4,128l613.76,1.32Z"/><path class="cls-303" d="M1173.83,554.08s-68.41-100.47-136-123.64-120.68-98.79-178.61-72.1S695.1,402.83,584.07,554.08,530.7,681.83,530.7,681.83L1144,683.15Z"/><path class="cls-304" d="M1173.6,554.24S1105.25,454,1037.71,430.84s-120.6-98.6-178.49-72-164,44.4-275,195.36-53.33,127.5-53.33,127.5l612.92,1.32Z"/><path class="cls-305" d="M1173.38,554.4s-68.31-100.08-135.8-123.16-120.52-98.41-178.37-71.82-163.91,44.32-274.78,195-53.3,127.25-53.3,127.25l612.5,1.32Z"/><path class="cls-306" d="M1173.16,554.56s-68.27-99.88-135.71-122.92S917,333.43,859.2,360s-163.79,44.23-274.6,194.6-53.25,127-53.25,127l612.08,1.32Z"/><path class="cls-307" d="M1172.93,554.73s-68.22-99.7-135.61-122.68S917,334,859.19,360.51,695.51,404.65,584.78,554.73s-53.22,126.75-53.22,126.75l611.67,1.31Z"/><path class="cls-308" d="M1172.71,554.89s-68.17-99.5-135.53-122.44-120.27-97.83-178-71.4S695.61,405.1,585,554.89s-53.19,126.5-53.19,126.5L1143,682.7Z"/><path class="cls-309" d="M1172.48,555.05s-68.12-99.31-135.43-122.2-120.19-97.64-177.88-71.26-163.46,44-274,193.46S532,681.3,532,681.3l610.83,1.31Z"/><path class="cls-310" d="M1172.26,555.21s-68.08-99.11-135.34-122S916.81,335.8,859.16,362.13,695.81,406,585.31,555.21s-53.11,126-53.11,126l610.42,1.3Z"/><path class="cls-311" d="M1172,555.37s-68-98.91-135.25-121.72-120-97.25-177.64-71-163.24,43.8-273.66,192.7-53.08,125.75-53.08,125.75l610,1.3Z"/><path class="cls-312" d="M1171.81,555.53s-68-98.72-135.15-121.48-120-97.06-177.52-70.83S696,406.92,585.67,555.53s-53,125.5-53,125.5l609.58,1.3Z"/><path class="cls-313" d="M1171.59,555.69s-67.94-98.52-135.06-121.24-119.87-96.86-177.4-70.69-163,43.62-273.28,191.93-53,125.25-53,125.25l609.17,1.3Z"/><path class="cls-314" d="M1171.37,555.85s-67.9-98.32-135-121S916.62,338.18,859.12,364.3,696.22,407.83,586,555.85s-53,125-53,125l608.74,1.29Z"/><path class="cls-315" d="M1171.14,556s-67.84-98.13-134.88-120.75-119.69-96.49-177.15-70.42S696.32,408.29,586.2,556s-52.93,124.76-52.93,124.76l608.33,1.29Z"/><path class="cls-316" d="M1170.92,556.17s-67.8-97.93-134.79-120.51-119.61-96.29-177-70.28S696.42,408.74,586.38,556.17s-52.9,124.51-52.9,124.51L1141.39,682Z"/><path class="cls-317" d="M1170.69,556.33S1102.94,458.59,1036,436.06,916.47,340,859.09,365.93,696.53,409.2,586.55,556.33,533.7,680.59,533.7,680.59l607.49,1.29Z"/><path class="cls-318" d="M1170.47,556.49s-67.71-97.54-134.6-120-119.45-95.9-176.79-70-162.45,43.18-272.35,190-52.82,124-52.82,124L1141,681.79Z"/><path class="cls-319" d="M1170.25,556.65s-67.66-97.34-134.51-119.79S916.37,341.15,859.07,367s-162.34,43.1-272.16,189.64-52.79,123.76-52.79,123.76l606.66,1.28Z"/><path class="cls-320" d="M1170,556.81s-67.61-97.15-134.41-119.55-119.29-95.52-176.55-69.71-162.23,43-272,189.26-52.75,123.51-52.75,123.51l606.24,1.28Z"/><path class="cls-321" d="M1169.8,557s-67.57-97-134.32-119.3-119.21-95.33-176.43-69.58S696.93,411,587.26,557s-52.71,123.27-52.71,123.27l605.83,1.27Z"/><path class="cls-322" d="M1169.57,557.13s-67.52-96.75-134.23-119.06S916.22,342.93,859,368.64s-162,42.84-271.6,188.49-52.68,123-52.68,123l605.41,1.27Z"/><path class="cls-323" d="M1169.35,557.29s-67.47-96.56-134.14-118.82-119-94.94-176.18-69.29S697.14,411.93,587.62,557.29,535,680.06,535,680.06l605,1.27Z"/><path class="cls-324" d="M1169.13,557.45s-67.43-96.36-134.05-118.58-119-94.75-176.06-69.15S697.24,412.39,587.8,557.45,535.19,680,535.19,680l604.58,1.27Z"/><path class="cls-325" d="M1168.9,557.61s-67.38-96.17-134-118.34-118.88-94.56-175.94-69S697.34,412.84,588,557.61s-52.56,122.27-52.56,122.27l604.15,1.27Z"/><path class="cls-326" d="M1168.68,557.77s-67.34-96-133.86-118.1S916,345.31,859,370.8s-161.56,42.5-270.85,187-52.53,122-52.53,122l603.74,1.27Z"/><path class="cls-327" d="M1168.46,557.93s-67.29-95.77-133.77-117.86S916,345.9,859,371.35s-161.45,42.4-270.66,186.58-52.5,121.77-52.5,121.77L1139.16,681Z"/><path class="cls-328" d="M1168.23,558.09S1101,462.51,1034.56,440.48,915.93,346.5,859,371.89s-161.33,42.32-270.47,186.2-52.46,121.53-52.46,121.53l602.9,1.25Z"/><path class="cls-329" d="M1168,558.25s-67.2-95.38-133.58-117.37S915.88,347.09,859,372.43,697.75,414.66,588.68,558.25s-52.42,121.28-52.42,121.28l602.49,1.25Z"/><path class="cls-330" d="M1167.78,558.41s-67.14-95.18-133.49-117.13S915.83,347.68,859,373s-161.11,42.15-270.1,185.44-52.39,121-52.39,121l602.07,1.25Z"/><path class="cls-331" d="M1167.56,558.58s-67.1-95-133.4-116.9S915.78,348.28,859,373.51,698,415.57,589,558.58s-52.35,120.77-52.35,120.77l601.65,1.25Z"/><path class="cls-332" d="M1167.34,558.74s-67.06-94.8-133.31-116.66-118.3-93.21-175.09-68S698.05,416,589.22,558.74,536.9,679.26,536.9,679.26l601.24,1.25Z"/><path class="cls-333" d="M1167.11,558.9s-67-94.61-133.21-116.42-118.22-93-175-67.88S698.15,416.48,589.39,558.9s-52.28,120.27-52.28,120.27l600.82,1.25Z"/><path class="cls-334" d="M1166.89,559.06s-67-94.41-133.12-116.17-118.14-92.83-174.85-67.75-160.66,41.8-269.35,183.92-52.24,120-52.24,120l600.4,1.25Z"/><path class="cls-335" d="M1166.66,559.22s-66.91-94.21-133-115.93-118.06-92.64-174.73-67.61S698.36,417.39,589.75,559.22,537.54,679,537.54,679l600,1.24Z"/><path class="cls-336" d="M1166.44,559.38s-66.87-94-132.93-115.69-118-92.44-174.61-67.47-160.44,41.63-269,183.16-52.16,119.53-52.16,119.53l599.56,1.23Z"/><path class="cls-337" d="M1166.22,559.54s-66.83-93.82-132.85-115.45S915.48,351.84,858.9,376.77,698.56,418.3,590.1,559.54,538,678.82,538,678.82l599.15,1.23Z"/><path class="cls-338" d="M1166,559.7s-66.77-93.62-132.75-115.21-117.81-92.05-174.35-67.18S698.66,418.76,590.28,559.7s-52.1,119-52.1,119L1136.92,680Z"/><path class="cls-339" d="M1165.77,559.86s-66.73-93.43-132.66-115-117.73-91.86-174.23-67-160.11,41.37-268.42,182S538.4,678.64,538.4,678.64l598.31,1.23Z"/><path class="cls-340" d="M1165.55,560S1098.86,466.79,1033,445.29s-117.64-91.67-174.11-66.9S698.87,419.67,590.63,560s-52,118.53-52,118.53l597.9,1.23Z"/><path class="cls-341" d="M1165.32,560.18s-66.63-93-132.47-114.48-117.56-91.48-174-66.77S699,420.13,590.81,560.18s-52,118.28-52,118.28l597.49,1.23Z"/><path class="cls-342" d="M1165.1,560.34s-66.59-92.84-132.38-114.24-117.48-91.29-173.87-66.62S699.07,420.58,591,560.34s-52,118-52,118l597.06,1.22Z"/><path class="cls-343" d="M1164.87,560.5s-66.54-92.64-132.28-114S915.19,355.41,858.84,380,699.17,421,591.17,560.5s-51.92,117.79-51.92,117.79l596.65,1.22Z"/><path class="cls-344" d="M1164.65,560.66s-66.5-92.45-132.19-113.76S915.14,356,858.83,380.56s-159.55,40.93-267.49,180.1S539.47,678.2,539.47,678.2l596.22,1.22Z"/><path class="cls-345" d="M1164.43,560.82S1098,468.57,1032.32,447.3s-117.23-90.71-173.5-66.2S699.38,422,591.52,560.82s-51.84,117.29-51.84,117.29l595.81,1.21Z"/><path class="cls-346" d="M1164.2,561s-66.4-92.05-132-113.28S915,357.19,858.81,381.64,699.48,422.4,591.7,561s-51.81,117-51.81,117l595.4,1.21Z"/><path class="cls-347" d="M1164,561.14s-66.36-91.86-131.92-113S915,357.78,858.8,382.19s-159.22,40.67-266.92,179-51.77,116.79-51.77,116.79l595,1.21Z"/><path class="cls-348" d="M1163.75,561.3s-66.31-91.66-131.82-112.79-117-90.13-173.14-65.78S699.68,423.31,592.05,561.3s-51.73,116.54-51.73,116.54l594.56,1.21Z"/><path class="cls-349" d="M1163.53,561.46S1097.27,470,1031.8,448.91s-116.91-89.94-173-65.64-159,40.5-266.55,178.19-51.7,116.3-51.7,116.3l594.15,1.2Z"/><path class="cls-350" d="M1163.31,561.62s-66.22-91.27-131.64-112.31-116.83-89.75-172.9-65.5S699.89,424.22,592.41,561.62s-51.66,116-51.66,116l593.72,1.2Z"/><path class="cls-351" d="M1163.08,561.78s-66.17-91.07-131.54-112.07-116.75-89.55-172.78-65.36S700,424.68,592.58,561.78,541,677.58,541,677.58l593.31,1.2Z"/><path class="cls-352" d="M1162.86,561.94s-66.13-90.88-131.46-111.83S914.74,360.75,858.75,384.9s-158.66,40.23-266,177-51.59,115.55-51.59,115.55l592.9,1.2Z"/><path class="cls-353" d="M1162.64,562.1s-66.08-90.68-131.37-111.59S914.7,361.35,858.74,385.44,700.19,425.59,592.94,562.1s-51.55,115.3-51.55,115.3l592.47,1.19Z"/><path class="cls-354" d="M1162.41,562.27s-66-90.49-131.27-111.36-116.49-89-172.41-64.93S700.29,426,593.12,562.27s-51.52,115-51.52,115l592.06,1.19Z"/><path class="cls-355" d="M1162.19,562.43s-66-90.3-131.18-111.11-116.41-88.79-172.29-64.8-158.32,40-265.43,175.91-51.47,114.79-51.47,114.79l591.64,1.19Z"/><path class="cls-356" d="M1162,562.59s-65.93-90.1-131.08-110.87-116.33-88.59-172.17-64.66S700.5,427,593.47,562.59,542,677.14,542,677.14l591.22,1.18Z"/><path class="cls-357" d="M1161.74,562.75s-65.89-89.9-131-110.63-116.25-88.4-172-64.51-158.1,39.8-265.05,175.14-51.41,114.3-51.41,114.3l590.81,1.18Z"/><path class="cls-358" d="M1161.52,562.91s-65.85-89.71-130.9-110.39-116.17-88.2-171.93-64.37-158,39.72-264.86,174.76S542.46,677,542.46,677l590.38,1.18Z"/><path class="cls-359" d="M1161.29,563.07s-65.8-89.51-130.8-110.15-116.09-88-171.81-64.23S700.8,428.32,594,563.07s-51.33,113.8-51.33,113.8l590,1.18Z"/><path class="cls-360" d="M1161.07,563.23s-65.75-89.32-130.72-109.91-116-87.82-171.68-64.09-157.77,39.55-264.49,174-51.3,113.55-51.3,113.55L1132.44,678Z"/><path class="cls-361" d="M1160.84,563.39s-65.7-89.12-130.62-109.67-115.92-87.62-171.56-64S701,429.23,594.36,563.39s-51.26,113.3-51.26,113.3l589.13,1.18Z"/><path class="cls-362" d="M1160.62,563.55S1095,474.63,1030.09,454.13s-115.84-87.44-171.44-63.81S701.11,429.69,594.54,563.55,543.31,676.6,543.31,676.6L1132,677.77Z"/><path class="cls-363" d="M1160.4,563.71S1094.78,475,1030,454.53,914.2,367.29,858.64,390.86,701.21,430.14,594.71,563.71s-51.19,112.81-51.19,112.81l588.31,1.16Z"/><path class="cls-364" d="M1160.17,563.87s-65.56-88.53-130.34-108.94-115.68-87.05-171.2-63.53S701.31,430.6,594.89,563.87s-51.15,112.56-51.15,112.56l587.88,1.16Z"/><path class="cls-365" d="M1160,564s-65.52-88.33-130.25-108.7-115.6-86.86-171.08-63.39S701.41,431.05,595.07,564,544,676.34,544,676.34l587.47,1.16Z"/><path class="cls-366" d="M1159.73,564.19s-65.48-88.14-130.16-108.46-115.51-86.66-171-63.25-157.09,39-263.36,171.71-51.08,112.06-51.08,112.06l587.05,1.16Z"/><path class="cls-367" d="M1159.5,564.35s-65.43-87.94-130.07-108.22S914,369.66,858.6,393,701.62,432,595.42,564.35s-51,111.81-51,111.81L1131,677.32Z"/><path class="cls-368" d="M1159.28,564.51s-65.38-87.75-130-108-115.34-86.27-170.71-63-156.87,38.85-263,170.94-51,111.56-51,111.56l586.22,1.16Z"/><path class="cls-369" d="M1159.05,564.67s-65.33-87.55-129.88-107.73-115.26-86.09-170.59-62.83-156.76,38.76-262.8,170.56-51,111.31-51,111.31l585.79,1.16Z"/><path class="cls-370" d="M1158.83,564.83S1093.54,477.48,1029,457.34s-115.18-85.9-170.47-62.69S701.92,433.33,596,564.83,545,675.9,545,675.9l585.38,1.15Z"/><path class="cls-371" d="M1158.61,565s-65.24-87.16-129.7-107.25S913.81,372,858.56,395.19,702,433.78,596.13,565s-50.9,110.82-50.9,110.82l585,1.14Z"/><path class="cls-372" d="M1158.38,565.15s-65.19-87-129.6-107-115-85.51-170.23-62.41S702.13,434.24,596.31,565.15s-50.86,110.57-50.86,110.57L1130,676.86Z"/><path class="cls-373" d="M1158.16,565.31S1093,478.55,1028.65,458.54s-114.94-85.31-170.11-62.26-156.31,38.41-262,169-50.83,110.32-50.83,110.32l584.13,1.14Z"/><path class="cls-374" d="M1157.93,565.47s-65.1-86.57-129.41-106.53-114.86-85.12-170-62.12-156.2,38.33-261.87,168.65-50.78,110.07-50.78,110.07l583.71,1.14Z"/><path class="cls-375" d="M1157.71,565.63s-65-86.37-129.33-106.29-114.77-84.93-169.86-62S702.43,435.6,596.84,565.63s-50.75,109.82-50.75,109.82l583.29,1.14Z"/><path class="cls-376" d="M1157.49,565.79s-65-86.18-129.24-106S913.56,375,858.51,397.9,702.53,436.06,597,565.79,546.3,675.36,546.3,675.36l582.88,1.14Z"/><path class="cls-377" d="M1157.26,566s-65-86-129.14-105.8S913.51,375.6,858.5,398.44,702.64,436.52,597.2,566s-50.68,109.33-50.68,109.33L1129,676.41Z"/><path class="cls-378" d="M1157,566.12s-64.92-85.79-129-105.57S913.46,376.2,858.49,399,702.74,437,597.37,566.12s-50.64,109.07-50.64,109.07l582,1.13Z"/><path class="cls-379" d="M1156.82,566.28s-64.87-85.6-129-105.33-114.44-84.16-169.38-61.42-155.64,37.9-260.93,166.75S546.94,675.1,546.94,675.1l581.63,1.12Z"/><path class="cls-380" d="M1156.59,566.44s-64.82-85.4-128.86-105.09-114.36-84-169.26-61.28S702.94,437.88,597.73,566.44,547.16,675,547.16,675l581.21,1.12Z"/><path class="cls-381" d="M1156.37,566.6s-64.78-85.2-128.77-104.85S913.32,378,858.46,400.61,703,438.34,597.91,566.6s-50.54,108.32-50.54,108.32L1128.16,676Z"/><path class="cls-382" d="M1156.14,566.76s-64.72-85-128.68-104.61-114.19-83.58-169-61S703.14,438.79,598.08,566.76s-50.5,108.07-50.5,108.07L1128,676Z"/><path class="cls-383" d="M1155.92,566.92s-64.68-84.81-128.59-104.36S913.22,379.17,858.44,401.7,703.25,439.25,598.26,566.92,547.8,674.74,547.8,674.74l580,1.12Z"/><path class="cls-384" d="M1155.7,567.08S1091.06,482.46,1027.2,463s-114-83.2-168.77-60.72-155.08,37.46-260,164.84S548,674.66,548,674.66l579.54,1.11Z"/><path class="cls-385" d="M1155.47,567.24s-64.59-84.42-128.4-103.88-113.95-83-168.65-60.58-155,37.38-259.8,164.46-50.39,107.33-50.39,107.33l579.12,1.11Z"/><path class="cls-386" d="M1155.25,567.4s-64.54-84.22-128.31-103.64S913.07,381,858.41,403.32,703.55,440.61,598.79,567.4s-50.35,107.08-50.35,107.08l578.7,1.11Z"/><path class="cls-387" d="M1155,567.56s-64.49-84-128.21-103.4S913,381.54,858.4,403.86,703.65,441.07,599,567.56s-50.32,106.83-50.32,106.83l578.29,1.11Z"/><path class="cls-388" d="M1154.8,567.72s-64.45-83.83-128.12-103.16S913,382.14,858.39,404.41,703.76,441.52,599.15,567.72,548.87,674.3,548.87,674.3l577.87,1.1Z"/><path class="cls-389" d="M1154.58,567.88s-64.41-83.63-128-102.92-113.63-82.23-168.17-60S703.86,442,599.32,567.88s-50.24,106.33-50.24,106.33l577.45,1.1Z"/><path class="cls-390" d="M1154.35,568S1090,484.6,1026.41,465.37s-113.54-82.05-168-59.88S704,442.43,599.5,568s-50.21,106.08-50.21,106.08l577,1.1Z"/><path class="cls-391" d="M1154.13,568.2S1089.82,485,1026.28,465.77,912.82,383.92,858.36,406,704.06,442.89,599.68,568.2,549.51,674,549.51,674l576.62,1.09Z"/><path class="cls-392" d="M1153.91,568.36s-64.27-83.05-127.76-102.19-113.37-81.66-167.8-59.6S704.16,443.34,599.86,568.36,549.72,674,549.72,674l576.2,1.09Z"/><path class="cls-393" d="M1153.68,568.52S1089.46,485.67,1026,466.57s-113.29-81.46-167.68-59.45S704.26,443.8,600,568.52s-50.1,105.34-50.1,105.34L1125.72,675Z"/><path class="cls-394" d="M1153.46,568.68S1089.29,486,1025.89,467,912.68,385.7,858.33,407.66s-154,36.59-258.12,161-50.06,105.09-50.06,105.09l575.37,1.09Z"/><path class="cls-395" d="M1153.23,568.84s-64.12-82.46-127.47-101.47S912.63,386.29,858.33,408.2,704.47,444.71,600.39,568.84s-50,104.84-50,104.84l574.95,1.09Z"/><path class="cls-396" d="M1153,569s-64.08-82.26-127.38-101.23-113.05-80.88-167.31-59S704.57,445.17,600.57,569s-50,104.59-50,104.59l574.53,1.08Z"/><path class="cls-397" d="M1152.79,569.16s-64-82.06-127.3-101-113-80.7-167.18-58.9S704.67,445.62,600.74,569.16s-50,104.34-50,104.34l574.11,1.08Z"/><path class="cls-398" d="M1152.56,569.32s-64-81.87-127.2-100.74-112.88-80.5-167.06-58.75S704.77,446.08,600.92,569.32,551,673.42,551,673.42l573.7,1.07Z"/><path class="cls-399" d="M1152.34,569.48S1088.4,487.81,1025.23,469s-112.8-80.31-166.94-58.61S704.88,446.53,601.1,569.48s-49.88,103.85-49.88,103.85l573.28,1.07Z"/><path class="cls-400" d="M1152.11,569.64s-63.89-81.47-127-100.26-112.72-80.12-166.82-58.47S705,447,601.28,569.64s-49.85,103.6-49.85,103.6l572.86,1.07Z"/><path class="cls-401" d="M1151.89,569.81s-63.84-81.29-126.92-100-112.64-79.92-166.7-58.33-153.19,36-256.82,158.36-49.81,103.34-49.81,103.34l572.45,1.07Z"/><path class="cls-402" d="M1151.67,570s-63.8-81.09-126.83-99.79S912.28,390.45,858.26,412,705.18,447.9,601.63,570s-49.77,103.09-49.77,103.09l572,1.07Z"/><path class="cls-403" d="M1151.44,570.13s-63.75-80.9-126.73-99.55-112.48-79.53-166.46-58-153,35.81-256.44,157.59S552.07,673,552.07,673L1123.68,674Z"/><path class="cls-404" d="M1151.22,570.29s-63.71-80.7-126.64-99.3-112.4-79.35-166.34-57.91S705.38,448.81,602,570.29s-49.7,102.59-49.7,102.59L1123.48,674Z"/><path class="cls-405" d="M1151,570.45s-63.66-80.5-126.56-99.06-112.3-79.16-166.21-57.77S705.49,449.26,602.16,570.45,552.5,672.8,552.5,672.8l570.78,1.05Z"/><path class="cls-406" d="M1150.77,570.61s-63.61-80.31-126.46-98.82-112.22-79-166.09-57.63S705.59,449.72,602.34,570.61s-49.63,102.1-49.63,102.1l570.36,1Z"/><path class="cls-407" d="M1150.55,570.77s-63.57-80.11-126.37-98.58S912,393.42,858.21,414.7,705.69,450.17,602.52,570.77s-49.59,101.85-49.59,101.85l569.94,1Z"/><path class="cls-408" d="M1150.32,570.93S1086.8,491,1024.05,472.59,912,394,858.2,415.25,705.79,450.63,602.69,570.93s-49.55,101.6-49.55,101.6l569.52,1.05Z"/><path class="cls-409" d="M1150.1,571.09s-63.47-79.72-126.18-98.1-112-78.38-165.73-57.2-152.3,35.29-255.32,155.3-49.52,101.35-49.52,101.35l569.11,1Z"/><path class="cls-410" d="M1149.88,571.25s-63.43-79.52-126.09-97.86-111.9-78.19-165.61-57.06S706,451.54,603.05,571.25s-49.48,101.1-49.48,101.1l568.69,1Z"/><path class="cls-411" d="M1149.65,571.41s-63.38-79.33-126-97.61-111.82-78-165.49-56.93S706.1,452,603.23,571.41s-49.45,100.85-49.45,100.85l568.27,1Z"/><path class="cls-412" d="M1149.43,571.57s-63.33-79.13-125.91-97.37-111.73-77.81-165.36-56.79-152,35-254.76,154.16S554,672.18,554,672.18l567.86,1Z"/><path class="cls-413" d="M1149.2,571.73s-63.28-78.93-125.81-97.13S911.74,397,858.15,418,706.3,452.9,603.58,571.73s-49.37,100.36-49.37,100.36l567.44,1Z"/><path class="cls-414" d="M1149,571.89s-63.24-78.74-125.72-96.89-111.57-77.42-165.12-56.5S706.4,453.36,603.76,571.89,554.42,672,554.42,672l567,1Z"/><path class="cls-415" d="M1148.76,572.05s-63.2-78.54-125.63-96.65-111.49-77.23-165-56.36-151.62,34.78-254.19,153-49.3,99.86-49.3,99.86l566.6,1Z"/><path class="cls-416" d="M1148.53,572.21S1085.39,493.87,1023,475.8s-111.41-77-164.88-56.22-151.51,34.69-254,152.63-49.26,99.61-49.26,99.61l566.19,1Z"/><path class="cls-417" d="M1148.31,572.37s-63.1-78.15-125.44-96.17-111.33-76.84-164.76-56.08-151.4,34.61-253.82,152.25-49.23,99.36-49.23,99.36l565.77,1Z"/><path class="cls-418" d="M1148.09,572.53s-63.06-77.95-125.35-95.92S911.49,400,858.1,420.67,706.81,455.18,604.47,572.53s-49.19,99.11-49.19,99.11l565.35,1Z"/><path class="cls-419" d="M1147.86,572.69s-63-77.76-125.25-95.68-111.16-76.46-164.52-55.8S706.91,455.64,604.65,572.69s-49.16,98.87-49.16,98.87l564.94,1Z"/><path class="cls-420" d="M1147.64,572.85s-63-77.56-125.17-95.44S911.4,401.14,858.08,421.75,707,456.09,604.82,572.85s-49.12,98.62-49.12,98.62l564.52,1Z"/><path class="cls-421" d="M1147.41,573s-62.91-77.36-125.07-95.2-111-76.07-164.27-55.52S707.12,456.55,605,573s-49.08,98.37-49.08,98.37l564.1,1Z"/><path class="cls-422" d="M1147.19,573.17s-62.87-77.17-125-95S911.3,402.33,858.06,422.83,707.22,457,605.18,573.17s-49,98.12-49,98.12l563.68,1Z"/><path class="cls-423" d="M1147,573.33s-62.82-77-124.89-94.72-110.83-75.68-164-55.23-150.73,34.08-252.69,150-49,97.87-49,97.87l563.27,1Z"/><path class="cls-424" d="M1146.74,573.49S1084,496.72,1022,479,911.2,403.52,858,423.92s-150.62,34-252.51,149.57-49,97.62-49,97.62l562.85,1Z"/><path class="cls-425" d="M1146.52,573.66s-62.73-76.59-124.7-94.24-110.67-75.31-163.79-55-150.51,33.91-252.32,149.2S556.77,671,556.77,671l562.43,1Z"/><path class="cls-426" d="M1146.29,573.82s-62.68-76.39-124.6-94S911.1,404.71,858,425,707.63,458.82,605.89,573.82,557,670.94,557,670.94l562,1Z"/><path class="cls-427" d="M1146.07,574s-62.63-76.2-124.52-93.76S911.05,405.3,858,425.54,707.73,459.28,606.06,574s-48.86,96.87-48.86,96.87l561.6,1Z"/><path class="cls-428" d="M1145.85,574.14s-62.59-76-124.43-93.52S911,405.9,858,426.09,707.83,459.73,606.24,574.14s-48.83,96.62-48.83,96.62l561.18,1Z"/><path class="cls-429" d="M1145.62,574.3s-62.54-75.8-124.33-93.28S911,406.49,858,426.63,707.93,460.19,606.42,574.3s-48.79,96.37-48.79,96.37l560.76,1Z"/><path class="cls-430" d="M1145.4,574.46s-62.5-75.61-124.24-93S910.9,407.08,858,427.17,708,460.64,606.6,574.46s-48.76,96.12-48.76,96.12l560.35,1Z"/><path class="cls-431" d="M1145.18,574.62s-62.45-75.41-124.15-92.8S910.85,407.68,858,427.71,708.13,461.1,606.77,574.62s-48.72,95.87-48.72,95.87l559.93,1Z"/><path class="cls-432" d="M1145,574.78s-62.4-75.21-124.05-92.55-110.09-74-162.94-54-149.72,33.3-251,146.53-48.68,95.62-48.68,95.62l559.51,1Z"/><path class="cls-433" d="M1144.73,574.94s-62.36-75-124-92.31S910.76,408.87,858,428.8,708.34,462,607.13,574.94s-48.65,95.37-48.65,95.37l559.1,1Z"/><path class="cls-434" d="M1144.5,575.1s-62.31-74.82-123.86-92.07-109.93-73.57-162.7-53.69S708.44,462.46,607.31,575.1s-48.61,95.13-48.61,95.13l558.67,1Z"/><path class="cls-435" d="M1144.28,575.26S1082,500.63,1020.5,483.43s-109.84-73.38-162.57-53.55-149.39,33-250.45,145.38-48.57,94.88-48.57,94.88l558.26,1Z"/><path class="cls-436" d="M1144.06,575.42s-62.22-74.43-123.69-91.59-109.76-73.18-162.45-53.41-149.28,33-250.26,145-48.54,94.63-48.54,94.63L1117,671Z"/><path class="cls-437" d="M1143.83,575.58s-62.17-74.23-123.59-91.35-109.68-73-162.33-53.27S708.75,463.83,607.84,575.58,559.34,670,559.34,670l557.42,1Z"/><path class="cls-438" d="M1143.61,575.74s-62.12-74-123.5-91.11-109.6-72.79-162.21-53.12S708.85,464.29,608,575.74s-48.47,94.13-48.47,94.13l557,1Z"/><path class="cls-439" d="M1143.38,575.9S1081.31,502.06,1020,485s-109.52-72.61-162.09-53S709,464.74,608.19,575.9s-48.43,93.88-48.43,93.88l556.59,1Z"/><path class="cls-440" d="M1143.16,576.06s-62-73.64-123.31-90.62-109.44-72.42-162-52.85S709.05,465.2,608.37,576.06,560,669.69,560,669.69l556.17,1Z"/><path class="cls-441" d="M1142.94,576.22s-62-73.45-123.22-90.38-109.36-72.22-161.85-52.71S709.15,465.65,608.55,576.22s-48.36,93.39-48.36,93.39l555.76,1Z"/><path class="cls-442" d="M1142.71,576.38s-61.93-73.25-123.13-90.14-109.27-72-161.72-52.57S709.25,466.11,608.73,576.38s-48.33,93.14-48.33,93.14l555.34,1Z"/><path class="cls-443" d="M1142.49,576.54s-61.89-73-123-89.9-109.19-71.83-161.6-52.43-148.49,32.35-249,142.33-48.28,92.89-48.28,92.89l554.92,1Z"/><path class="cls-444" d="M1142.26,576.7s-61.84-72.86-122.94-89.66S910.21,415.4,857.84,434.76,709.46,467,609.08,576.7s-48.25,92.64-48.25,92.64l554.51,1Z"/><path class="cls-445" d="M1142,576.86s-61.8-72.66-122.85-89.42S910.17,416,857.83,435.3,709.56,467.47,609.26,576.86s-48.21,92.39-48.21,92.39l554.08,1Z"/><path class="cls-446" d="M1141.82,577s-61.75-72.47-122.76-89.17-108.94-71.26-161.24-52S709.66,467.93,609.43,577s-48.17,92.14-48.17,92.14l553.67,1Z"/><path class="cls-447" d="M1141.59,577.18s-61.7-72.27-122.66-88.93-108.86-71.07-161.12-51.87-148,32-248.2,140.8-48.14,91.89-48.14,91.89l553.26,1Z"/><path class="cls-448" d="M1141.37,577.35s-61.66-72.08-122.57-88.7S910,417.78,857.8,436.92s-147.93,31.92-248,140.43S561.69,669,561.69,669l552.83.94Z"/><path class="cls-449" d="M1141.15,577.51s-61.62-71.89-122.48-88.46S910,418.37,857.79,437.47,710,469.29,610,577.51,561.9,668.9,561.9,668.9l552.42.94Z"/><path class="cls-450" d="M1140.92,577.67s-61.56-71.69-122.39-88.22S909.92,419,857.78,438,710.07,469.75,610.14,577.67s-48,91.14-48,91.14l552,.94Z"/><path class="cls-451" d="M1140.7,577.83s-61.52-71.49-122.3-88-108.53-70.29-160.63-51.3S710.17,470.2,610.32,577.83s-48,90.89-48,90.89l551.58.94Z"/><path class="cls-452" d="M1140.47,578s-61.47-71.3-122.2-87.74-108.45-70.1-160.51-51.16S710.27,470.66,610.5,578s-48,90.64-48,90.64l551.17.94Z"/><path class="cls-453" d="M1140.25,578.15s-61.42-71.1-122.11-87.49-108.37-69.91-160.38-51S710.37,471.11,610.68,578.15s-47.92,90.39-47.92,90.39l550.74.94Z"/><path class="cls-454" d="M1140,578.31s-61.38-70.91-122-87.25-108.29-69.72-160.26-50.88-147.27,31.39-246.9,138.13S563,668.45,563,668.45l550.33.94Z"/><path class="cls-455" d="M1139.8,578.47s-61.33-70.71-121.92-87-108.21-69.53-160.14-50.74S710.58,472,611,578.47s-47.85,89.9-47.85,89.9l549.92.93Z"/><path class="cls-456" d="M1139.58,578.63s-61.29-70.51-121.83-86.77-108.13-69.33-160-50.6S710.68,472.48,611.21,578.63s-47.81,89.65-47.81,89.65l549.49.93Z"/><path class="cls-457" d="M1139.35,578.79s-61.23-70.32-121.74-86.53-108-69.14-159.89-50.46-146.94,31.14-246.33,137-47.78,89.4-47.78,89.4l549.08.92Z"/><path class="cls-458" d="M1139.13,579s-61.19-70.12-121.65-86.29-108-68.94-159.77-50.32S710.88,473.39,611.56,579s-47.74,89.15-47.74,89.15l548.67.92Z"/><path class="cls-459" d="M1138.91,579.11s-61.15-69.92-121.56-86.05S909.48,424.31,857.7,442.89s-146.71,31-246,136.22S564,668,564,668l548.24.92Z"/></svg>