<svg id="Layer_1" data-name="Layer 1" xmlns="http://www.w3.org/2000/svg" xmlns:xlink="http://www.w3.org/1999/xlink" viewBox="0 0 1187.04 700"><defs><style>.cls-1{stroke:#000;stroke-miterlimit:10;stroke-width:7px;fill:url(#radial-gradient);}.cls-2{fill:#f4ff00;}.cls-3{fill:url(#radial-gradient-2);}</style><radialGradient id="radial-gradient" cx="507.51" cy="306.65" r="260.09" gradientTransform="translate(43.14 11.77)" gradientUnits="userSpaceOnUse"><stop offset="0.27" stop-color="#fff"/><stop offset="1"/></radialGradient><radialGradient id="radial-gradient-2" cx="539.47" cy="243.66" r="181.68" gradientTransform="translate(-55.37 -2.04) scale(1.13 1.06)" gradientUnits="userSpaceOnUse"><stop offset="0" stop-color="#fff"/><stop offset="1"/></radialGradient></defs><ellipse class="cls-1" cx="550.66" cy="318.42" rx="358.47" ry="82.45" transform="translate(-11.37 20.53) rotate(-2.11)"/><path class="cls-2" d="M193.79,343.9c8.24,0,16.14-7.25,15.75-15.75s-6.92-15.75-15.75-15.75c-8.23,0-16.13,7.24-15.75,15.75S185,343.9,193.79,343.9Z"/><path class="cls-2" d="M233.52,380.64c8.24,0,16.13-7.24,15.75-15.75s-6.92-15.75-15.75-15.75c-8.24,0-16.13,7.25-15.75,15.75s6.92,15.75,15.75,15.75Z"/><path class="cls-2" d="M286.39,398.43c8.23,0,16.13-7.24,15.75-15.75s-6.92-15.75-15.75-15.75c-8.24,0-16.13,7.25-15.75,15.75s6.92,15.75,15.75,15.75Z"/><path class="cls-2" d="M344.11,406.83c8.24,0,16.13-7.24,15.75-15.75s-6.92-15.75-15.75-15.75c-8.24,0-16.13,7.24-15.75,15.75s6.92,15.75,15.75,15.75Z"/><path class="cls-2" d="M408.75,411c8.24,0,16.14-7.24,15.75-15.75s-6.92-15.75-15.75-15.75c-8.23,0-16.13,7.25-15.75,15.75S399.93,411,408.75,411Z"/><path class="cls-2" d="M482.59,414.62c8.24,0,16.13-7.25,15.75-15.75s-6.92-15.75-15.75-15.75c-8.24,0-16.13,7.24-15.75,15.75s6.92,15.75,15.75,15.75Z"/><path class="cls-2" d="M553.7,416.57c8.24,0,16.13-7.25,15.75-15.75s-6.92-15.75-15.75-15.75c-8.24,0-16.13,7.24-15.75,15.75s6.92,15.75,15.75,15.75Z"/><path class="cls-2" d="M627.33,413.85c8.24,0,16.13-7.25,15.75-15.75s-6.92-15.75-15.75-15.75c-8.24,0-16.13,7.24-15.75,15.75s6.92,15.75,15.75,15.75Z"/><path class="cls-2" d="M694.19,406.8c8.24,0,16.13-7.24,15.75-15.75S703,375.3,694.19,375.3c-8.24,0-16.13,7.25-15.75,15.75s6.92,15.75,15.75,15.75Z"/><path class="cls-2" d="M759.43,391.49c8.24,0,16.13-7.24,15.75-15.75S768.26,360,759.43,360c-8.24,0-16.13,7.25-15.75,15.75s6.92,15.75,15.75,15.75Z"/><path class="cls-2" d="M820.82,378.7c8.23,0,16.13-7.24,15.75-15.75s-6.92-15.75-15.75-15.75c-8.24,0-16.14,7.24-15.75,15.75S812,378.7,820.82,378.7Z"/><path class="cls-2" d="M874.58,357c8.24,0,16.13-7.24,15.75-15.75s-6.92-15.75-15.75-15.75c-8.24,0-16.13,7.25-15.75,15.75S865.75,357,874.58,357Z"/><path class="cls-2" d="M908.88,321c8.24,0,16.13-7.25,15.75-15.75s-6.92-15.75-15.75-15.75c-8.24,0-16.13,7.24-15.75,15.75S900.05,321,908.88,321Z"/><ellipse class="cls-3" cx="552.22" cy="255.99" rx="270.33" ry="97.07" transform="translate(-9.07 20.55) rotate(-2.11)"/></svg>