<svg id="Layer_1" data-name="Layer 1" xmlns="http://www.w3.org/2000/svg" viewBox="0 0 700 700"><defs><style>.cls-1{fill:#f7941d;}.cls-2{fill:#f7951d;}.cls-3{fill:#f7961d;}.cls-4{fill:#f8971d;}.cls-5{fill:#f8981c;}.cls-6{fill:#f8991c;}.cls-7{fill:#f89a1c;}.cls-8{fill:#f99b1c;}.cls-9{fill:#f99c1c;}.cls-10{fill:#f99d1c;}.cls-11{fill:#f99e1b;}.cls-12{fill:#f99f1b;}.cls-13{fill:#faa01b;}.cls-14{fill:#faa11b;}.cls-15{fill:#faa21b;}.cls-16{fill:#faa31b;}.cls-17{fill:#faa41a;}.cls-18{fill:#fba51a;}.cls-19{fill:#fba61a;}.cls-20{fill:#fba71a;}.cls-21{fill:#fca81a;}.cls-22{fill:#fca919;}.cls-23{fill:#fcaa19;}.cls-24{fill:#fcab19;}.cls-25{fill:#fcac19;}.cls-26{fill:#fdad19;}.cls-27{fill:#fdae19;}.cls-28{fill:#fdaf18;}.cls-29{fill:#fdb018;}.cls-30{fill:#fdb118;}.cls-31{fill:#feb218;}.cls-32{fill:#feb318;}.cls-33{fill:#feb418;}.cls-34{fill:#feb517;}.cls-35{fill:#ffb617;}.cls-36{fill:#ffb717;}.cls-37{fill:#ffb817;}.cls-38{fill:#ffb917;}.cls-39{fill:#ffba16;}.cls-40{fill:#ffbb16;}.cls-41{fill:#ffbc16;}.cls-42{fill:#ffbd15;}.cls-43{fill:#ffbe15;}.cls-44{fill:#ffbf15;}.cls-45{fill:#ffc014;}.cls-46{fill:#ffc114;}.cls-47{fill:#ffc214;}.cls-48{fill:#ffc313;}.cls-49{fill:#ffc413;}.cls-50{fill:#ffc513;}.cls-51{fill:#ffc613;}.cls-52{fill:#ffc712;}.cls-53{fill:#ffc812;}.cls-54{fill:#ffc912;}.cls-55{fill:#ffca11;}.cls-56{fill:#ffcb11;}.cls-57{fill:#fc1;}.cls-58{fill:#ffcd10;}.cls-59{fill:#ffce10;}.cls-60{fill:#ffcf10;}.cls-61{fill:#ffd00f;}.cls-62{fill:#ffd10f;}.cls-63{fill:#ffd20f;}.cls-64{fill:#ffd30e;}.cls-65{fill:#ffd40e;}.cls-66{fill:#ffd50e;}.cls-67{fill:#ffd60d;}.cls-68{fill:#ffd70d;}.cls-69{fill:#ffd80d;}.cls-70{fill:#ffd90c;}.cls-71{fill:#ffda0c;}.cls-72{fill:#ffdb0c;}.cls-73{fill:#ffdc0b;}.cls-74{fill:#ffdd0b;}.cls-75{fill:#ffde0b;}.cls-76{fill:#ffdf0a;}.cls-77{fill:#ffe00a;}.cls-78{fill:#ffe10a;}.cls-79{fill:#ffe209;}.cls-80{fill:#ffe309;}.cls-81{fill:#ffe409;}.cls-82{fill:#ffe508;}.cls-83{fill:#ffe608;}.cls-84{fill:#ffe708;}.cls-85{fill:#ffe807;}.cls-86{fill:#ffe907;}.cls-87{fill:#ffea07;}.cls-88{fill:#ffeb06;}.cls-89{fill:#ffec06;}.cls-90{fill:#ffed06;}.cls-91{fill:#ffee05;}.cls-92{fill:#ffef05;}.cls-93{fill:#fff005;}.cls-94{fill:#fff104;}.cls-95{fill:#fff204;}.cls-96{fill:#fff304;}.cls-97{fill:#fff404;}.cls-98{fill:#fff503;}.cls-99{fill:#fff603;}.cls-100{fill:#fff703;}.cls-101{fill:#fff802;}.cls-102{fill:#fff902;}.cls-103{fill:#fffa02;}.cls-104{fill:#fffb01;}.cls-105{fill:#fffc01;}.cls-106{fill:#fffd01;}.cls-107{fill:#fffe00;}.cls-108{fill:#ff0;}</style></defs><circle class="cls-1" cx="350" cy="350" r="279.46"/><circle class="cls-2" cx="350.11" cy="350.07" r="277.96"/><circle class="cls-3" cx="350.22" cy="350.15" r="276.45"/><circle class="cls-4" cx="350.33" cy="350.22" r="274.95"/><circle class="cls-5" cx="350.44" cy="350.29" r="273.44"/><circle class="cls-6" cx="350.55" cy="350.36" r="271.94"/><circle class="cls-7" cx="350.66" cy="350.44" r="270.44"/><circle class="cls-8" cx="350.77" cy="350.51" r="268.93"/><circle class="cls-9" cx="350.88" cy="350.58" r="267.43"/><circle class="cls-10" cx="350.99" cy="350.65" r="265.92"/><circle class="cls-11" cx="351.1" cy="350.73" r="264.42"/><circle class="cls-12" cx="351.21" cy="350.8" r="262.91"/><circle class="cls-13" cx="351.32" cy="350.87" r="261.41"/><circle class="cls-14" cx="351.43" cy="350.95" r="259.9"/><circle class="cls-15" cx="351.53" cy="351.02" r="258.4"/><circle class="cls-16" cx="351.64" cy="351.09" r="256.89"/><circle class="cls-17" cx="351.75" cy="351.16" r="255.39"/><circle class="cls-18" cx="351.86" cy="351.24" r="253.88"/><circle class="cls-19" cx="351.97" cy="351.31" r="252.38"/><circle class="cls-19" cx="352.08" cy="351.38" r="250.87"/><circle class="cls-20" cx="352.19" cy="351.46" r="249.37"/><circle class="cls-21" cx="352.3" cy="351.53" r="247.86"/><circle class="cls-22" cx="352.41" cy="351.6" r="246.36"/><circle class="cls-23" cx="352.52" cy="351.67" r="244.85"/><circle class="cls-24" cx="352.63" cy="351.75" r="243.35"/><circle class="cls-25" cx="352.74" cy="351.82" r="241.84"/><circle class="cls-26" cx="352.85" cy="351.89" r="240.34"/><circle class="cls-27" cx="352.96" cy="351.96" r="238.83"/><circle class="cls-28" cx="353.07" cy="352.04" r="237.33"/><circle class="cls-29" cx="353.18" cy="352.11" r="235.82"/><circle class="cls-30" cx="353.29" cy="352.18" r="234.32"/><circle class="cls-31" cx="353.4" cy="352.26" r="232.81"/><circle class="cls-32" cx="353.51" cy="352.33" r="231.31"/><circle class="cls-33" cx="353.62" cy="352.4" r="229.8"/><circle class="cls-34" cx="353.73" cy="352.47" r="228.3"/><circle class="cls-35" cx="353.84" cy="352.55" r="226.79"/><circle class="cls-36" cx="353.95" cy="352.62" r="225.29"/><circle class="cls-37" cx="354.06" cy="352.69" r="223.78"/><circle class="cls-38" cx="354.1" cy="352.73" r="222.9"/><circle class="cls-39" cx="354.14" cy="352.78" r="222.02"/><circle class="cls-40" cx="354.18" cy="352.82" r="221.14"/><circle class="cls-41" cx="354.22" cy="352.86" r="220.26"/><circle class="cls-42" cx="354.26" cy="352.9" r="219.38"/><circle class="cls-43" cx="354.31" cy="352.95" r="218.5"/><circle class="cls-44" cx="354.35" cy="352.99" r="217.62"/><circle class="cls-45" cx="354.39" cy="353.03" r="216.74"/><circle class="cls-46" cx="354.43" cy="353.07" r="215.86"/><circle class="cls-47" cx="354.47" cy="353.11" r="214.98"/><circle class="cls-48" cx="354.51" cy="353.16" r="214.1"/><circle class="cls-49" cx="354.56" cy="353.2" r="213.22"/><circle class="cls-50" cx="354.6" cy="353.24" r="212.34"/><circle class="cls-51" cx="354.64" cy="353.28" r="211.46"/><circle class="cls-52" cx="354.68" cy="353.32" r="210.58"/><circle class="cls-53" cx="354.72" cy="353.37" r="209.7"/><circle class="cls-54" cx="354.76" cy="353.41" r="208.82"/><circle class="cls-55" cx="354.81" cy="353.45" r="207.94"/><circle class="cls-56" cx="354.85" cy="353.49" r="207.06"/><circle class="cls-57" cx="354.89" cy="353.54" r="206.18"/><circle class="cls-58" cx="354.93" cy="353.58" r="205.3"/><circle class="cls-59" cx="354.97" cy="353.62" r="204.42"/><circle class="cls-60" cx="355.01" cy="353.66" r="203.54"/><circle class="cls-61" cx="355.06" cy="353.7" r="202.66"/><circle class="cls-62" cx="355.1" cy="353.75" r="201.78"/><circle class="cls-63" cx="355.14" cy="353.79" r="200.9"/><circle class="cls-64" cx="355.18" cy="353.83" r="200.02"/><circle class="cls-65" cx="355.22" cy="353.87" r="199.14"/><circle class="cls-66" cx="355.26" cy="353.91" r="198.26"/><circle class="cls-67" cx="355.31" cy="353.96" r="197.38"/><circle class="cls-68" cx="355.35" cy="354" r="196.5"/><circle class="cls-69" cx="355.39" cy="354.04" r="195.62"/><circle class="cls-70" cx="355.43" cy="354.08" r="194.74"/><circle class="cls-71" cx="355.47" cy="354.13" r="193.86"/><circle class="cls-72" cx="355.51" cy="354.17" r="192.98"/><circle class="cls-72" cx="355.56" cy="354.21" r="192.1"/><circle class="cls-73" cx="355.6" cy="354.25" r="191.22"/><circle class="cls-74" cx="355.64" cy="354.29" r="190.34"/><circle class="cls-75" cx="355.68" cy="354.34" r="189.46"/><circle class="cls-76" cx="355.72" cy="354.38" r="188.58"/><circle class="cls-77" cx="355.76" cy="354.42" r="187.7"/><circle class="cls-78" cx="355.81" cy="354.46" r="186.82"/><circle class="cls-79" cx="355.85" cy="354.51" r="185.94"/><circle class="cls-80" cx="355.89" cy="354.55" r="185.06"/><circle class="cls-81" cx="355.93" cy="354.59" r="184.18"/><circle class="cls-82" cx="355.97" cy="354.63" r="183.3"/><circle class="cls-83" cx="356.01" cy="354.67" r="182.42"/><circle class="cls-84" cx="356.06" cy="354.72" r="181.54"/><circle class="cls-85" cx="356.1" cy="354.76" r="180.66"/><circle class="cls-86" cx="356.14" cy="354.8" r="179.78"/><circle class="cls-87" cx="356.18" cy="354.84" r="178.9"/><circle class="cls-88" cx="356.22" cy="354.88" r="178.02"/><circle class="cls-89" cx="356.26" cy="354.93" r="177.14"/><circle class="cls-90" cx="356.31" cy="354.97" r="176.26"/><circle class="cls-91" cx="356.35" cy="355.01" r="175.38"/><circle class="cls-92" cx="356.39" cy="355.05" r="174.5"/><circle class="cls-93" cx="356.43" cy="355.1" r="173.62"/><circle class="cls-94" cx="356.47" cy="355.14" r="172.74"/><circle class="cls-95" cx="356.51" cy="355.18" r="171.86"/><circle class="cls-96" cx="356.56" cy="355.22" r="170.98"/><circle class="cls-97" cx="356.6" cy="355.26" r="170.1"/><circle class="cls-98" cx="356.64" cy="355.31" r="169.22"/><circle class="cls-99" cx="356.68" cy="355.35" r="168.34"/><circle class="cls-100" cx="356.72" cy="355.39" r="167.46"/><circle class="cls-101" cx="356.76" cy="355.43" r="166.58"/><circle class="cls-102" cx="356.8" cy="355.47" r="165.7"/><circle class="cls-103" cx="356.85" cy="355.52" r="164.82"/><circle class="cls-104" cx="356.89" cy="355.56" r="163.94"/><circle class="cls-105" cx="356.93" cy="355.6" r="163.06"/><circle class="cls-106" cx="356.97" cy="355.64" r="162.18"/><circle class="cls-107" cx="357.01" cy="355.69" r="161.3"/><circle class="cls-108" cx="357.05" cy="355.73" r="160.42"/></svg>